<svg xmlns="http://www.w3.org/2000/svg" width="16" height="16" viewBox="0 0 16 16"><rect width="16" height="16" fill="none"/><path d="M.5,3V1.1C.5,1,.5.9.6.9V.7L.9.5h5l.4.2L7.5,3" fill="#e7c146" opacity="0.2"/><path d="M.5,3V1.1C.5,1,.5.9.6.9V.7L.9.5h5l.4.2L7.5,3" fill="none" stroke="#e7c146" stroke-miterlimit="10"/><g opacity="0.8"><path d="M16,15H0V4H8l.5-2.4a.5.5,0,0,1,.2-.4L9,1h6.6c0,.1.1.1.2.2v.2c.1,0,.1.1.1.2V15Z" fill="#fff"/></g><path d="M15,2V14H1V5H8.8L9,4.2,9.4,2H15m.4-1H9l-.3.2a.5.5,0,0,0-.2.4L8,4H0V15H16V1.6c0-.1,0-.2-.1-.2V1.2c-.1-.1-.2-.1-.2-.2Z" fill="#777"/></svg>