<svg xmlns="http://www.w3.org/2000/svg" viewBox="0 0 16 16"><g id="Calque_2" data-name="Calque 2"><g id="Draw"><g id="Rechercher-Zoom-Loupe_16_1"><g opacity="0.8"><path d="M.57,12h4a.58.58,0,0,1,.58.58v1.63a.59.59,0,0,1-.59.59h-4A.58.58,0,0,1,0,14.24V12.61A.59.59,0,0,1,.57,12Z" transform="translate(-8.73 5.74) rotate(-44.95)" fill="#fff"/></g><path d="M3.41,12l.57.57L1.73,14.83l-.56-.57L3.41,12m0-1.17A.58.58,0,0,0,3,11L.17,13.85a.59.59,0,0,0,0,.83l1.15,1.15a.58.58,0,0,0,.41.17.63.63,0,0,0,.42-.17L5,13a.6.6,0,0,0,0-.83L3.83,11a.63.63,0,0,0-.42-.17Z" fill="#777"/><polygon points="3.82 11.32 4.69 12.19 6 11 5 10 3.82 11.32" fill="#777"/><g opacity="0.2"><circle cx="10.25" cy="5.75" r="5.75" fill="#fff"/></g><path d="M10.25,1A4.75,4.75,0,1,1,5.5,5.75,4.75,4.75,0,0,1,10.25,1m0-1A5.75,5.75,0,1,0,16,5.75,5.74,5.74,0,0,0,10.25,0Z" fill="#83beec"/></g></g></g></svg>