<?xml version="1.0" encoding="UTF-8"?><svg xmlns="http://www.w3.org/2000/svg" width="80" height="16" viewBox="0 0 80 16"><g id="a"/><g id="b"><g id="c"><g id="d"><rect id="e" width="16" height="16" fill="none"/><path d="M11.5,4c.28,0,.5,.22,.5,.5v7c0,.28-.22,.5-.5,.5H4.5c-.28,0-.5-.22-.5-.5V4.5c0-.28,.22-.5,.5-.5h7m0-1H4.5c-.83,0-1.5,.67-1.5,1.5v7c0,.83,.67,1.5,1.5,1.5h7c.83,0,1.5-.67,1.5-1.5V4.5c0-.83-.67-1.5-1.5-1.5h0Z" fill="#3a3a3a"/></g><g id="f"><rect id="g" x="16" width="16" height="16" fill="none"/><path d="M27.5,4c.28,0,.5,.22,.5,.5v7c0,.28-.22,.5-.5,.5h-7c-.28,0-.5-.22-.5-.5V4.5c0-.28,.22-.5,.5-.5h7m0-1h-7c-.83,0-1.5,.67-1.5,1.5v7c0,.83,.67,1.5,1.5,1.5h7c.83,0,1.5-.67,1.5-1.5V4.5c0-.83-.67-1.5-1.5-1.5h0Z" fill="#3a3a3a"/></g><g id="h" opacity=".4"><rect id="i" x="32" width="16" height="16" fill="none"/><path d="M43.5,4c.28,0,.5,.22,.5,.5v7c0,.28-.22,.5-.5,.5h-7c-.28,0-.5-.22-.5-.5V4.5c0-.28,.22-.5,.5-.5h7m0-1h-7c-.83,0-1.5,.67-1.5,1.5v7c0,.83,.67,1.5,1.5,1.5h7c.83,0,1.5-.67,1.5-1.5V4.5c0-.83-.67-1.5-1.5-1.5h0Z" fill="#3a3a3a"/></g><g id="j"><rect id="k" x="48" width="16" height="16" fill="none"/><path d="M59.5,4c.28,0,.5,.22,.5,.5v7c0,.28-.22,.5-.5,.5h-7c-.28,0-.5-.22-.5-.5V4.5c0-.28,.22-.5,.5-.5h7m0-1h-7c-.83,0-1.5,.67-1.5,1.5v7c0,.83,.67,1.5,1.5,1.5h7c.83,0,1.5-.67,1.5-1.5V4.5c0-.83-.67-1.5-1.5-1.5h0Z" fill="#3a3a3a"/></g><g id="l"><rect id="m" x="64" width="16" height="16" fill="none"/><path d="M75.5,4c.28,0,.5,.22,.5,.5v7c0,.28-.22,.5-.5,.5h-7c-.28,0-.5-.22-.5-.5V4.5c0-.28,.22-.5,.5-.5h7m0-1h-7c-.83,0-1.5,.67-1.5,1.5v7c0,.83,.67,1.5,1.5,1.5h7c.83,0,1.5-.67,1.5-1.5V4.5c0-.83-.67-1.5-1.5-1.5h0Z" fill="#777"/></g></g></g></svg>