<?xml version="1.0" encoding="UTF-8"?><svg id="Calque_2" xmlns="http://www.w3.org/2000/svg" width="360" height="45" viewBox="0 0 360 45"><g id="Scroll_H"><rect id="Frame" x="0" width="360" height="45" fill="none"/><g id="Grisé"><rect id="Fond" x="307.5" y="-37.5" width="15" height="90" transform="translate(307.5 322.5) rotate(-90)" fill="#f2f2f2"/></g><g id="Survol"><rect id="Fond-2" x="217.5" y="-37.5" width="15" height="90" transform="translate(217.5 232.5) rotate(-90)" fill="#f2f2f2"/><rect x="237.5" y="-5.5" width="5" height="26" rx="2.5" ry="2.5" transform="translate(232.5 247.5) rotate(-90)" fill="#838383"/><polyline id="Suivant" points="23.43 43.5 27.43 39.5 23.43 35.5" fill="none" stroke="#838383" stroke-miterlimit="10"/><polyline id="Suivant-2" points="26.43 15.5 22.43 19.5 26.43 23.5" fill="none" stroke="#838383" stroke-miterlimit="10"/></g><g id="Enfoncé"><rect id="Fond-3" x="127.5" y="-37.5" width="15" height="90" transform="translate(127.5 142.5) rotate(-90)" fill="#f2f2f2"/><rect x="147.5" y="-5.5" width="5" height="26" rx="2.5" ry="2.5" transform="translate(142.5 157.5) rotate(-90)" fill="#838383"/><polyline id="Suivant-3" points="13.43 43.5 17.43 39.5 13.43 35.5" fill="none" stroke="#838383" stroke-miterlimit="10"/><polyline id="Suivant-4" points="16.43 15.5 12.43 19.5 16.43 23.5" fill="none" stroke="#838383" stroke-miterlimit="10"/></g><g id="Repos"><rect id="Fond-4" x="37.5" y="-37.5" width="15" height="90" transform="translate(37.5 52.5) rotate(-90)" fill="#f2f2f2"/><polyline id="Suivant-5" points="3.43 43.5 7.43 39.5 3.43 35.5" fill="none" stroke="#838383" stroke-miterlimit="10"/><polyline id="Suivant-6" points="6.43 15.5 2.43 19.5 6.43 23.5" fill="none" stroke="#838383" stroke-miterlimit="10"/><rect x="57.5" y="-5.5" width="5" height="26" rx="2.5" ry="2.5" transform="translate(52.5 67.5) rotate(-90)" fill="#838383"/></g></g></svg>