<svg xmlns="http://www.w3.org/2000/svg" xmlns:xlink="http://www.w3.org/1999/xlink" width="12" height="16" viewBox="0 0 12 16"><defs><clipPath id="a" transform="translate(-2 0)"><rect width="16" height="16" fill="none"/></clipPath><clipPath id="d" transform="translate(-2 0)"><rect x="2" width="12" height="16" fill="none"/></clipPath></defs><g clip-path="url(#a)"><g clip-path="url(#a)"><g clip-path="url(#a)"><g opacity="0.8"><g clip-path="url(#d)"><polygon points="0 16 0 0 8.02 0 12 4 12 16 0 16" fill="#fff"/></g></g></g><polyline points="10 4.5 7.5 4.5 7.5 2" fill="none" stroke="#83beec" stroke-linejoin="round"/><path d="M3,1H9.61L13,4.41V15H3ZM2,0V16H14V4L10,0Z" transform="translate(-2 0)" fill="#777"/></g></g><rect x="2" y="12" width="8" height="1" fill="#83beec"/><rect x="2" y="8" width="8" height="1" fill="#83beec"/><rect x="2" y="10" width="8" height="1" fill="#83beec"/><rect x="2" y="4" width="4" height="1" fill="#83beec"/></svg>