<svg xmlns="http://www.w3.org/2000/svg" xmlns:xlink="http://www.w3.org/1999/xlink" width="16" height="16" viewBox="0 0 16 16"><defs><clipPath id="a" transform="translate(-3 0)"><rect width="16" height="16" fill="none"/></clipPath><clipPath id="d" transform="translate(-3 0)"><rect x="3" width="12" height="16" fill="none"/></clipPath></defs><rect width="16" height="16" fill="none"/><rect x="11" y="15" width="5" height="1" fill="#83beec"/><rect x="11" y="13" width="5" height="1" fill="#83beec"/><rect x="11" y="11" width="5" height="1" fill="#83beec"/><g clip-path="url(#a)"><g clip-path="url(#a)"><g clip-path="url(#a)"><g opacity="0.8"><g clip-path="url(#d)"><polygon points="0 15 0.01 0 12 11 7 11 8.59 14.8 5 16 3.43 12 0 15" fill="#fff"/></g></g></g><path d="M4,2.33,12.36,10H8.46l.59,1.43,1.16,2.78-1.61.54-1.21-3.1-.53-1.36-1.1,1L4,12.74ZM3,0V15l3.43-3L8,16l3.59-1.2L10,11h5Z" transform="translate(-3 0)" fill="#777"/></g></g></svg>