<svg xmlns="http://www.w3.org/2000/svg" width="16" height="16" viewBox="0 0 16 16"><rect width="16" height="16" fill="none"/><path d="M8.33,7.67V9.33H6.67V7.67H8.33M9,6H6A1,1,0,0,0,5,7v3a1,1,0,0,0,1,1H9a1,1,0,0,0,1-1V7A1,1,0,0,0,9,6Z" fill="#83beec"/><rect x="1.5" y="6.5" width="1" height="4" transform="translate(10.5 6.5) rotate(90)" fill="#c2c2c2"/><rect x="12.5" y="6.5" width="1" height="4" transform="translate(21.5 -4.5) rotate(90)" fill="#c2c2c2"/><rect x="7" y="1" width="1" height="4" transform="translate(15 6) rotate(-180)" fill="#c2c2c2"/><rect x="7" y="12" width="1" height="4" transform="translate(15 28) rotate(-180)" fill="#c2c2c2"/></svg>