<?xml version="1.0" encoding="UTF-8"?><svg xmlns="http://www.w3.org/2000/svg" width="168" height="14" viewBox="0 0 168 14"><g id="a"/><g id="b"><g id="c"><g id="d"><g id="e"><circle cx="7" cy="7" r="7" fill="#0069ba"/><circle cx="7" cy="7" r="3" fill="#fff"/></g><g id="f"><circle cx="21" cy="7" r="7" fill="#0069ba"/><circle cx="21" cy="7" r="3" fill="#fff"/></g><g id="g" opacity=".4"><g><circle cx="35" cy="7" r="6.5" fill="#fff"/><path d="M35,1c3.31,0,6,2.69,6,6s-2.69,6-6,6-6-2.69-6-6,2.69-6,6-6m0-1c-3.87,0-7,3.13-7,7s3.13,7,7,7,7-3.13,7-7-3.13-7-7-7h0Z" fill="#ddd"/></g><circle cx="35" cy="7" r="3" fill="#ddd"/></g><g id="h"><g opacity=".4"><circle cx="49" cy="7" r="7" fill="#0069ba"/></g><circle cx="49" cy="7" r="3" fill="#fff"/></g></g><g id="i"><g id="j"><g><circle cx="63" cy="7" r="6.5" fill="#fff"/><path d="M63,1c3.31,0,6,2.69,6,6s-2.69,6-6,6-6-2.69-6-6,2.69-6,6-6m0-1c-3.87,0-7,3.13-7,7s3.13,7,7,7,7-3.13,7-7-3.13-7-7-7h0Z" fill="#ddd"/></g></g><g id="k"><g><circle cx="77" cy="7" r="6.5" fill="#fff"/><path d="M77,1c3.31,0,6,2.69,6,6s-2.69,6-6,6-6-2.69-6-6,2.69-6,6-6m0-1c-3.87,0-7,3.13-7,7s3.13,7,7,7,7-3.13,7-7-3.13-7-7-7h0Z" fill="#ddd"/></g></g><g id="l" opacity=".4"><g><circle cx="91" cy="7" r="6.5" fill="#fff"/><path d="M91,1c3.31,0,6,2.69,6,6s-2.69,6-6,6-6-2.69-6-6,2.69-6,6-6m0-1c-3.87,0-7,3.13-7,7s3.13,7,7,7,7-3.13,7-7-3.13-7-7-7h0Z" fill="#ddd"/></g></g><g id="m"><g><circle cx="105" cy="7" r="6.5" fill="#fff"/><path d="M105,1c3.31,0,6,2.69,6,6s-2.69,6-6,6-6-2.69-6-6,2.69-6,6-6m0-1c-3.87,0-7,3.13-7,7s3.13,7,7,7,7-3.13,7-7-3.13-7-7-7h0Z" fill="#009ee0"/></g></g></g><g id="n"><g id="o"><circle cx="119" cy="7" r="7" fill="#0069ba"/><line id="p" x1="116.17" y1="7.35" x2="122.17" y2="7.35" fill="none" stroke="#fff" stroke-linecap="round" stroke-linejoin="round" stroke-width="2"/></g><g id="q"><circle cx="133" cy="7" r="7" fill="#0069ba"/><line id="r" x1="130.17" y1="7.35" x2="136.17" y2="7.35" fill="none" stroke="#fff" stroke-linecap="round" stroke-linejoin="round" stroke-width="2"/></g><g id="s" opacity=".4"><g><circle cx="147" cy="7" r="6.5" fill="#fff"/><path d="M147,1c3.31,0,6,2.69,6,6s-2.69,6-6,6-6-2.69-6-6,2.69-6,6-6m0-1c-3.87,0-7,3.13-7,7s3.13,7,7,7,7-3.13,7-7-3.13-7-7-7h0Z" fill="#ddd"/></g><line id="t" x1="144.17" y1="7.35" x2="150.17" y2="7.35" fill="none" stroke="#ddd" stroke-linecap="round" stroke-linejoin="round" stroke-width="2"/></g><g id="u"><g opacity=".4"><circle cx="161" cy="7" r="7" fill="#0069ba"/></g><line id="v" x1="158.17" y1="7.35" x2="164.17" y2="7.35" fill="none" stroke="#fff" stroke-linecap="round" stroke-linejoin="round" stroke-width="2"/></g></g></g></g></svg>