<svg xmlns="http://www.w3.org/2000/svg" xmlns:xlink="http://www.w3.org/1999/xlink" width="16" height="16" viewBox="0 0 16 16"><defs><clipPath id="a" transform="translate(0)"><polygon points="16 0 0 0 0 16 7 16 7 13 16 13 16 0" fill="none"/></clipPath><clipPath id="b" transform="translate(0)"><rect y="1" width="16" height="16" fill="none"/></clipPath><clipPath id="e" transform="translate(0)"><rect x="0.5" y="1.5" width="7" height="2.5" fill="none"/></clipPath><clipPath id="f" transform="translate(0)"><rect y="2" width="16" height="14" fill="none"/></clipPath></defs><rect width="16" height="16" fill="none"/><g clip-path="url(#a)"><g clip-path="url(#b)"><g clip-path="url(#b)"><g clip-path="url(#b)"><g opacity="0.2"><g clip-path="url(#e)"><path d="M.5,4V2.1a1.09,1.09,0,0,1,.09-.23.9.9,0,0,1,.15-.19.59.59,0,0,1,.19-.13.54.54,0,0,1,.21-.05h4.8a.51.51,0,0,1,.38.18C6.43,1.8,7.5,4,7.5,4" transform="translate(0)" fill="#e7c146"/></g></g><path d="M.5,4V2.1a1.09,1.09,0,0,1,.09-.23.9.9,0,0,1,.15-.19.59.59,0,0,1,.19-.13.54.54,0,0,1,.21-.05h4.8a.51.51,0,0,1,.38.18C6.43,1.8,7.5,4,7.5,4" transform="translate(0)" fill="none" stroke="#e7c146" stroke-miterlimit="10"/><g opacity="0.8"><g clip-path="url(#f)"><path d="M16,16H0V5H8l.48-2.4a.75.75,0,0,1,.2-.42C8.79,2.06,8.86,2,9,2h6.36a.54.54,0,0,1,.21,0,.59.59,0,0,1,.19.13.7.7,0,0,1,.15.19A.92.92,0,0,1,16,2.6V16Z" transform="translate(0)" fill="#fff"/></g></g><path d="M15,3V15H1V6H8.82L9,5.2,9.42,3H15m.36-1H9c-.14,0-.21.06-.32.18a.75.75,0,0,0-.2.42L8,5H0V16H16V2.6a1.09,1.09,0,0,0-.09-.23.9.9,0,0,0-.15-.19.59.59,0,0,0-.19-.13.54.54,0,0,0-.21,0" transform="translate(0)" fill="#777"/></g></g></g></g><rect x="8" y="14" width="2" height="2" fill="#83beec"/><rect x="11" y="14" width="2" height="2" fill="#83beec"/><rect x="14" y="14" width="2" height="2" fill="#83beec"/></svg>