<?xml version="1.0" encoding="UTF-8"?><svg xmlns="http://www.w3.org/2000/svg" width="80" height="16" viewBox="0 0 80 16"><g id="a"/><g id="b"><g id="c"><g id="d"><rect id="e" width="16" height="16" fill="none"/><path d="M11.5,4c.28,0,.5,.22,.5,.5v6.09L5.41,4h6.09m0-1H3L13,13V4.5c0-.83-.67-1.5-1.5-1.5h0Z" fill="#3a3a3a"/><g><line x1="7" y1="9" x2="3.5" y2="12.5" fill="none" stroke="#3a3a3a" stroke-linecap="round" stroke-miterlimit="10"/><line x1="5" y1="7" x2="3.5" y2="8.5" fill="none" stroke="#3a3a3a" stroke-linecap="round" stroke-miterlimit="10"/><line x1="9.02" y1="11.05" x2="7.52" y2="12.55" fill="none" stroke="#3a3a3a" stroke-linecap="round" stroke-miterlimit="10"/></g></g><g id="f"><rect id="g" x="16" width="16" height="16" fill="none"/><path d="M27.5,4c.28,0,.5,.22,.5,.5v6.09l-6.59-6.59h6.09m0-1h-8.5l10,10V4.5c0-.83-.67-1.5-1.5-1.5h0Z" fill="#3a3a3a"/><g><line x1="23" y1="9" x2="19.5" y2="12.5" fill="none" stroke="#3a3a3a" stroke-linecap="round" stroke-miterlimit="10"/><line x1="21" y1="7" x2="19.5" y2="8.5" fill="none" stroke="#3a3a3a" stroke-linecap="round" stroke-miterlimit="10"/><line x1="25.02" y1="11.05" x2="23.52" y2="12.55" fill="none" stroke="#3a3a3a" stroke-linecap="round" stroke-miterlimit="10"/></g></g><g id="h" opacity=".4"><rect id="i" x="32" width="16" height="16" fill="none"/><path d="M43.5,4c.28,0,.5,.22,.5,.5v6.09l-6.59-6.59h6.09m0-1h-8.5l10,10V4.5c0-.83-.67-1.5-1.5-1.5h0Z" fill="#3a3a3a"/><g><line x1="39" y1="9" x2="35.5" y2="12.5" fill="none" stroke="#3a3a3a" stroke-linecap="round" stroke-miterlimit="10"/><line x1="37" y1="7" x2="35.5" y2="8.5" fill="none" stroke="#3a3a3a" stroke-linecap="round" stroke-miterlimit="10"/><line x1="41.02" y1="11.05" x2="39.52" y2="12.55" fill="none" stroke="#3a3a3a" stroke-linecap="round" stroke-miterlimit="10"/></g></g><g id="j"><rect id="k" x="48" width="16" height="16" fill="none"/><path d="M59.5,4c.28,0,.5,.22,.5,.5v6.09l-6.59-6.59h6.09m0-1h-8.5l10,10V4.5c0-.83-.67-1.5-1.5-1.5h0Z" fill="#3a3a3a"/><g><line x1="55" y1="9" x2="51.5" y2="12.5" fill="none" stroke="#3a3a3a" stroke-linecap="round" stroke-miterlimit="10"/><line x1="53" y1="7" x2="51.5" y2="8.5" fill="none" stroke="#3a3a3a" stroke-linecap="round" stroke-miterlimit="10"/><line x1="57.02" y1="11.05" x2="55.52" y2="12.55" fill="none" stroke="#3a3a3a" stroke-linecap="round" stroke-miterlimit="10"/></g></g><g id="l"><rect id="m" x="64" width="16" height="16" fill="none"/><path d="M75.5,4c.28,0,.5,.22,.5,.5v6.09l-6.59-6.59h6.09m0-1h-8.5l10,10V4.5c0-.83-.67-1.5-1.5-1.5h0Z" fill="#777"/><g><line x1="71" y1="9" x2="67.5" y2="12.5" fill="none" stroke="#777" stroke-linecap="round" stroke-miterlimit="10"/><line x1="69" y1="7" x2="67.5" y2="8.5" fill="none" stroke="#777" stroke-linecap="round" stroke-miterlimit="10"/><line x1="73.02" y1="11.05" x2="71.52" y2="12.55" fill="none" stroke="#777" stroke-linecap="round" stroke-miterlimit="10"/></g></g></g></g></svg>