<?xml version="1.0" encoding="UTF-8"?><svg xmlns="http://www.w3.org/2000/svg" width="120" height="24" xmlns:xlink="http://www.w3.org/1999/xlink" viewBox="0 0 120 24"><defs><style>.m{fill:#ddd;}.n{fill:#fff;}.o{clip-path:url(#l);}.p{opacity:.4;}.q{fill:#009ee0;}.r{clip-path:url(#e);}.s{fill:none;}.t{fill:#f7f7f7;}.u{fill:#0069ba;}.v{fill:#838383;}.w{clip-path:url(#i);}.x{clip-path:url(#g);}</style><clipPath id="e"><path d="M24,20c0,1.66-1.34,3-3,3H3c-1.66,0-3-1.34-3-3v3.97H24v-3.97Z" fill="none"/></clipPath><clipPath id="g"><path d="M48,20c0,1.66-1.34,3-3,3H27c-1.66,0-3-1.34-3-3v3.97h24v-3.97Z" fill="none"/></clipPath><clipPath id="i"><path d="M72,20c0,1.66-1.34,3-3,3h-18c-1.66,0-3-1.34-3-3v3.97h24v-3.97Z" fill="none"/></clipPath><clipPath id="l"><path d="M120,20c0,1.66-1.34,3-3,3h-18c-1.66,0-3-1.34-3-3v3.97h24v-3.97Z" fill="none"/></clipPath></defs><g id="a"/><g id="b"><g id="c"><g id="d"><g><rect x=".5" y=".5" width="23" height="23" rx="2.5" ry="2.5" fill="#f7f7f7"/><path d="M21,1c1.1,0,2,.9,2,2V21c0,1.1-.9,2-2,2H3c-1.1,0-2-.9-2-2V3C1,1.9,1.9,1,3,1H21m0-1H3C1.34,0,0,1.34,0,3V21c0,1.66,1.34,3,3,3H21c1.66,0,3-1.34,3-3V3c0-1.66-1.34-3-3-3h0Z" fill="#ddd"/></g><g clip-path="#e"><g><path d="M3,23.5c-1.38,0-2.5-1.12-2.5-2.5s1.12-2.5,2.5-2.5H21c1.38,0,2.5,1.12,2.5,2.5s-1.12,2.5-2.5,2.5H3Z" fill="#fff"/><path d="M21,19c1.1,0,2,.9,2,2s-.9,2-2,2H3c-1.1,0-2-.9-2-2s.9-2,2-2H21m0-1H3c-1.66,0-3,1.34-3,3s1.34,3,3,3H21c1.66,0,3-1.34,3-3s-1.34-3-3-3h0Z" fill="#838383"/></g></g></g><g id="f"><g><rect x="24.5" y=".5" width="23" height="23" rx="2.5" ry="2.5" fill="#f7f7f7"/><path d="M45,1c1.1,0,2,.9,2,2V21c0,1.1-.9,2-2,2H27c-1.1,0-2-.9-2-2V3c0-1.1,.9-2,2-2h18m0-1H27c-1.66,0-3,1.34-3,3V21c0,1.66,1.34,3,3,3h18c1.66,0,3-1.34,3-3V3c0-1.66-1.34-3-3-3h0Z" fill="#ddd"/></g><g clip-path="#g"><rect x="24" y="18" width="24" height="6" rx="3" ry="3" fill="#0069ba"/></g></g><g id="h" opacity=".4"><g><rect x="48.5" y=".5" width="23" height="23" rx="2.5" ry="2.5" fill="#f7f7f7"/><path d="M69,1c1.1,0,2,.9,2,2V21c0,1.1-.9,2-2,2h-18c-1.1,0-2-.9-2-2V3c0-1.1,.9-2,2-2h18m0-1h-18c-1.66,0-3,1.34-3,3V21c0,1.66,1.34,3,3,3h18c1.66,0,3-1.34,3-3V3c0-1.66-1.34-3-3-3h0Z" fill="#ddd"/></g><g clip-path="#i"><g><path d="M51,23.5c-1.38,0-2.5-1.12-2.5-2.5s1.12-2.5,2.5-2.5h18c1.38,0,2.5,1.12,2.5,2.5s-1.12,2.5-2.5,2.5h-18Z" fill="#fff"/><path d="M69,19c1.1,0,2,.9,2,2s-.9,2-2,2h-18c-1.1,0-2-.9-2-2s.9-2,2-2h18m0-1h-18c-1.66,0-3,1.34-3,3s1.34,3,3,3h18c1.66,0,3-1.34,3-3s-1.34-3-3-3h0Z" fill="#838383"/></g></g></g><g id="j"><g><rect x="72.5" y=".5" width="23" height="23" rx="2.5" ry="2.5" fill="#f7f7f7"/><path d="M93,1c1.1,0,2,.9,2,2V21c0,1.1-.9,2-2,2h-18c-1.1,0-2-.9-2-2V3c0-1.1,.9-2,2-2h18m0-1h-18c-1.66,0-3,1.34-3,3V21c0,1.66,1.34,3,3,3h18c1.66,0,3-1.34,3-3V3c0-1.66-1.34-3-3-3h0Z" fill="#009ee0"/></g></g><g id="k"><g><rect x="96.5" y=".5" width="23" height="23" rx="2.5" ry="2.5" fill="#f7f7f7"/><path d="M117,1c1.1,0,2,.9,2,2V21c0,1.1-.9,2-2,2h-18c-1.1,0-2-.9-2-2V3c0-1.1,.9-2,2-2h18m0-1h-18c-1.66,0-3,1.34-3,3V21c0,1.66,1.34,3,3,3h18c1.66,0,3-1.34,3-3V3c0-1.66-1.34-3-3-3h0Z" fill="#ddd"/></g><g clip-path="#l"><rect x="96" y="18" width="24" height="6" rx="3" ry="3" fill="#0069ba"/></g></g></g></g></svg>