<svg xmlns="http://www.w3.org/2000/svg" xmlns:xlink="http://www.w3.org/1999/xlink" width="16" height="16" viewBox="0 0 16 16"><defs><clipPath id="a"><polygon points="8 8.3 16 12 16 0 8 0 8 8.3" fill="none" clip-rule="evenodd"/></clipPath></defs><g opacity="0.2"><circle cx="8" cy="8" r="8" fill="#83beec"/></g><path d="M8,1a7,7,0,0,1,7,7,7,7,0,0,1-7,7A7,7,0,0,1,1,8,7,7,0,0,1,8,1M8,0a8,8,0,1,0,8,8A8,8,0,0,0,8,0Z" fill="#777"/><line x1="4.4" y1="11.6" x2="3.8" y2="12.2" fill="none" stroke="#777" stroke-miterlimit="10" stroke-width="0.87"/><line x1="12.2" y1="12.2" x2="11.6" y2="11.6" fill="none" stroke="#777" stroke-miterlimit="10" stroke-width="0.87"/><line x1="4.4" y1="4.4" x2="3.8" y2="3.8" fill="none" stroke="#777" stroke-miterlimit="10" stroke-width="0.87"/><line x1="8" y1="13.1" x2="8" y2="14" fill="none" stroke="#777" stroke-miterlimit="10" stroke-width="0.87"/><line x1="2.9" y1="8" x2="2" y2="8" fill="none" stroke="#777" stroke-miterlimit="10" stroke-width="0.87"/><g clip-path="url(#a)"><circle cx="8" cy="8" r="6" fill="#e55348"/></g></svg>