<svg xmlns="http://www.w3.org/2000/svg" width="16" height="16" viewBox="0 0 16 16"><g opacity="0.2"><path d="M8.5.5a8,8,0,1,0,8,8A8,8,0,0,0,8.5.5Z" transform="translate(-0.5 -0.5)" fill="#53a93f"/></g><path d="M8.5,1.5a7,7,0,1,1-7,7,7,7,0,0,1,7-7m0-1a8,8,0,1,0,8,8,8,8,0,0,0-8-8Z" transform="translate(-0.5 -0.5)" fill="#53a93f"/><path d="M7.58,10.8a4.05,4.05,0,0,1,.2-1.31,3.48,3.48,0,0,1,.74-1.06l1-.93a2.08,2.08,0,0,0,.61-1.41A1.58,1.58,0,0,0,9.68,5a1.52,1.52,0,0,0-1.16-.41,1.8,1.8,0,0,0-1.19.37,1.25,1.25,0,0,0-.45,1H5.54A2.3,2.3,0,0,1,6.38,4.1a3.22,3.22,0,0,1,2.14-.69,3,3,0,0,1,2.13.71,2.49,2.49,0,0,1,.76,1.93,3.41,3.41,0,0,1-1.17,2.38l-.79.75a2.29,2.29,0,0,0-.53,1.62Zm0,2.2a.72.72,0,0,1,.2-.53.77.77,0,0,1,.59-.21.79.79,0,0,1,.59.21.76.76,0,0,1,.2.53.73.73,0,0,1-.2.52.79.79,0,0,1-.59.21.77.77,0,0,1-.59-.21A.69.69,0,0,1,7.53,13Z" transform="translate(-0.5 -0.5)" fill="#53a93f"/></svg>