<?xml version="1.0" encoding="UTF-8"?><svg id="Calque_2" xmlns="http://www.w3.org/2000/svg" width="60" height="120" viewBox="0 0 60 120"><g id="Scroll_V"><rect id="Frame" width="60" height="120" fill="none"/><g id="Grisé"><rect id="Fond" x="45" width="15" height="90" fill="#f2f2f2"/></g><g id="Survol"><rect id="Fond-2" x="30" width="15" height="90" fill="#f2f2f2"/><rect x="35" y="47" width="5" height="26" rx="2.5" ry="2.5" fill="#838383"/><polyline id="Suivant" points="21 114.43 25 118.43 29 114.43" fill="none" stroke="#838383" stroke-miterlimit="10"/><polyline id="Suivant-2" points="29 97.43 25 93.43 21 97.43" fill="none" stroke="#838383" stroke-miterlimit="10"/></g><g id="Enfoncé"><rect id="Fond-3" x="15" width="15" height="90" fill="#f2f2f2"/><rect x="20" y="47" width="5" height="26" rx="2.5" ry="2.5" fill="#838383"/><polyline id="Suivant-3" points="11 114.43 15 118.43 19 114.43" fill="none" stroke="#838383" stroke-miterlimit="10"/><polyline id="Suivant-4" points="19 97.43 15 93.43 11 97.43" fill="none" stroke="#838383" stroke-miterlimit="10"/></g><g id="Repos"><rect id="Fond-4" width="15" height="90" fill="#f2f2f2"/><polyline id="Suivant-5" points="1 114.43 5 118.43 9 114.43" fill="none" stroke="#838383" stroke-miterlimit="10"/><polyline id="Suivant-6" points="9 97.43 5 93.43 1 97.43" fill="none" stroke="#838383" stroke-miterlimit="10"/><rect x="5" y="47" width="5" height="26" rx="2.5" ry="2.5" fill="#838383"/></g></g></svg>