<svg xmlns="http://www.w3.org/2000/svg" xmlns:xlink="http://www.w3.org/1999/xlink" width="16" height="16" viewBox="0 0 16 16"><defs><clipPath id="a"><polygon points="0 0 0 4 0 11 6 11 6 5 9 5 9 0 0 0" fill="none"/></clipPath><clipPath id="b"><rect y="1" width="10" height="10" fill="none"/></clipPath><clipPath id="e"><rect x="1" y="1" width="8" height="10" fill="none"/></clipPath><clipPath id="f"><rect x="6" y="6" width="10" height="10" fill="none"/></clipPath><clipPath id="i"><rect x="7" y="6" width="8" height="10" fill="none"/></clipPath></defs><rect width="16" height="16" fill="none"/><g clip-path="url(#a)"><g clip-path="url(#b)"><g clip-path="url(#b)"><g clip-path="url(#b)"><g opacity="0.8"><g clip-path="url(#e)"><rect x="1" y="1" width="8" height="10" fill="#fff"/></g></g></g><path d="M2,2H8v8H2ZM1,11H9V1H1Z" fill="#777"/><rect x="3" y="6" width="4" height="1" fill="#83beec"/><rect x="3" y="8" width="4" height="1" fill="#83beec"/><rect x="3" y="4" width="4" height="1" fill="#83beec"/></g></g></g><g clip-path="url(#f)"><g clip-path="url(#f)"><g clip-path="url(#f)"><g opacity="0.8"><g clip-path="url(#i)"><rect x="7" y="6" width="8" height="10" fill="#fff"/></g></g></g><path d="M8,7h6v8H8ZM7,16h8V6H7Z" fill="#777"/><rect x="9" y="11" width="4" height="1" fill="#83beec"/><rect x="9" y="13" width="4" height="1" fill="#83beec"/><rect x="9" y="9" width="4" height="1" fill="#83beec"/></g></g></svg>