<?xml version="1.0" encoding="utf-8"?>
<!-- Generator: Adobe Illustrator 26.2.1, SVG Export Plug-In . SVG Version: 6.00 Build 0)  -->
<svg version="1.1" id="Calque_1" xmlns="http://www.w3.org/2000/svg" xmlns:xlink="http://www.w3.org/1999/xlink" x="0px" y="0px"
	 viewBox="0 0 16 16" enable-background="new 0 0 16 16" xml:space="preserve">
<g id="a">
</g>
<g id="b">
	<g id="c">
		<g id="d" transform="matrix(1.25 0 0 -1.25 0 45)">
			<g transform="matrix(1.25 0 0 -1.25 0 45)">
				<path fill="#83BEEC" d="M5.1,9.1C2.3,9.1,0,12.3,0,12.3s2.3,3.2,5.1,3.2s5.1-3.2,5.1-3.2S7.9,9.1,5.1,9.1z M5.1,14.9
					c-1.4,0-2.6-1.1-2.6-2.6s1.1-2.6,2.6-2.6s2.6,1.1,2.6,2.6S6.5,14.9,5.1,14.9z"/>
				<path fill="#83BEEC" d="M6.3,11.9c-0.4,0-0.8-0.4-0.8-0.8c0-0.2,0.1-0.4,0.2-0.6c-0.2-0.1-0.4-0.1-0.7-0.1
					c-1.1,0-1.9,0.9-1.9,1.9s0.9,1.9,1.9,1.9S7,13.4,7,12.3c0-0.2,0-0.4-0.1-0.7C6.8,11.8,6.6,11.9,6.3,11.9z"/>
			</g>
		</g>
	</g>
</g>
</svg>
