<?xml version="1.0" encoding="UTF-8"?><svg id="Calque_2" xmlns="http://www.w3.org/2000/svg" width="120" height="24" viewBox="0 0 120 24"><g id="Selection_ZR"><rect id="Frame" width="120" height="24" fill="none"/><g id="Repos"><g opacity=".3"><rect x="2" y="2" width="20" height="20" rx="3" ry="3" fill="#00b7ff"/></g><path d="M19,3c1.1,0,2,.9,2,2v14c0,1.1-.9,2-2,2H5c-1.1,0-2-.9-2-2V5c0-1.1,.9-2,2-2h14m0-1H5c-1.66,0-3,1.34-3,3v14c0,1.66,1.34,3,3,3h14c1.66,0,3-1.34,3-3V5c0-1.66-1.34-3-3-3h0Z" fill="#00b7ff"/></g><g id="Enfoncé"><g opacity=".3"><rect x="26" y="2" width="20" height="20" rx="3" ry="3" fill="#00b7ff"/></g><path d="M43,3c1.1,0,2,.9,2,2v14c0,1.1-.9,2-2,2h-14c-1.1,0-2-.9-2-2V5c0-1.1,.9-2,2-2h14m0-1h-14c-1.66,0-3,1.34-3,3v14c0,1.66,1.34,3,3,3h14c1.66,0,3-1.34,3-3V5c0-1.66-1.34-3-3-3h0Z" fill="#00b7ff"/></g><g id="Focus"><g opacity=".3"><rect x="74" y="2" width="20" height="20" rx="3" ry="3" fill="#00b7ff"/></g><path d="M91,3c1.1,0,2,.9,2,2v14c0,1.1-.9,2-2,2h-14c-1.1,0-2-.9-2-2V5c0-1.1,.9-2,2-2h14m0-1h-14c-1.66,0-3,1.34-3,3v14c0,1.66,1.34,3,3,3h14c1.66,0,3-1.34,3-3V5c0-1.66-1.34-3-3-3h0Z" fill="#00b7ff"/></g><g id="Enfoncé-2" opacity=".15"><rect x="98" y="2" width="20" height="20" rx="3" ry="3" fill="#00b7ff"/><g opacity="0"><path d="M115,3c1.1,0,2,.9,2,2v14c0,1.1-.9,2-2,2h-14c-1.1,0-2-.9-2-2V5c0-1.1,.9-2,2-2h14m0-1h-14c-1.66,0-3,1.34-3,3v14c0,1.66,1.34,3,3,3h14c1.66,0,3-1.34,3-3V5c0-1.66-1.34-3-3-3h0Z" fill="#00b7ff"/></g></g></g></svg>