<?xml version="1.0" encoding="UTF-8"?><svg xmlns="http://www.w3.org/2000/svg" width="240" height="24.5" xmlns:xlink="http://www.w3.org/1999/xlink" viewBox="0 0 240 24.5"><defs><style>.r{fill:#ddd;}.s,.t{fill:#fff;}.u{clip-path:url(#h);}.v{fill:#e6e6e6;}.w{opacity:.4;}.t{stroke:#e6e6e6;stroke-miterlimit:10;}.x{fill:#009ee0;}.y{clip-path:url(#e);}.a`{fill:none;}.aa{clip-path:url(#p);}.ab{fill:#0069ba;}.ac{fill:#838383;}.ad{clip-path:url(#k);}</style><clipPath id="e"><path d="M48,20.03c0,1.66-1.34,3-3,3H3c-1.66,0-3-1.34-3-3v3.97H48v-3.97Z" fill="none"/></clipPath><clipPath id="h"><path d="M96,20c0,1.67-1.34,3.02-3,3.02H51c-1.66,0-3-1.35-3-3.02v4h48v-4Z" fill="none"/></clipPath><clipPath id="k"><path d="M144,20.03c0,1.66-1.34,3-3,3h-42c-1.66,0-3-1.34-3-3v3.97h48v-3.97Z" fill="none"/></clipPath><clipPath id="p"><path d="M240,20c0,1.67-1.34,3.02-3,3.02h-42c-1.66,0-3-1.35-3-3.02v4h48v-4Z" fill="none"/></clipPath></defs><g id="a"/><g id="b"><g id="c"><g id="d"><g><g><rect x=".5" y=".5" width="47" height="23" rx="2.5" ry="2.5" fill="#fff"/><path d="M45,1c1.1,0,2,.9,2,2V21c0,1.1-.9,2-2,2H3c-1.1,0-2-.9-2-2V3C1,1.9,1.9,1,3,1H45m0-1H3C1.34,0,0,1.34,0,3V21c0,1.66,1.34,3,3,3H45c1.66,0,3-1.34,3-3V3c0-1.66-1.34-3-3-3h0Z" fill="#ddd"/></g><g clip-path="#e"><g><path d="M3,23.53c-1.38,0-2.5-1.12-2.5-2.5s1.12-2.5,2.5-2.5H45c1.38,0,2.5,1.12,2.5,2.5s-1.12,2.5-2.5,2.5H3Z" fill="#fff"/><path d="M45,19.03c1.1,0,2,.9,2,2s-.9,2-2,2H3c-1.1,0-2-.9-2-2s.9-2,2-2H45m0-1H3c-1.66,0-3,1.34-3,3s1.34,3,3,3H45c1.66,0,3-1.34,3-3s-1.34-3-3-3h0Z" fill="#838383"/></g></g></g><g id="f"><line x1="6" y1="17" x2="10" y2="13" fill="#fff" stroke="#e6e6e6" stroke-miterlimit="10"/><g><circle cx="13.5" cy="9.5" r="3.5" fill="#fff"/><path d="M13.5,6.5c1.65,0,3,1.35,3,3s-1.35,3-3,3-3-1.35-3-3,1.35-3,3-3m0-1c-2.21,0-4,1.79-4,4s1.79,4,4,4,4-1.79,4-4-1.79-4-4-4h0Z" fill="#e6e6e6"/></g></g></g><g id="g"><g><g><rect x="48.5" y=".5" width="47" height="23" rx="2.5" ry="2.5" fill="#fff"/><path d="M93,1c1.1,0,2,.9,2,2V21c0,1.1-.9,2-2,2H51c-1.1,0-2-.9-2-2V3c0-1.1,.9-2,2-2h42m0-1H51c-1.66,0-3,1.34-3,3V21c0,1.66,1.34,3,3,3h42c1.66,0,3-1.34,3-3V3c0-1.66-1.34-3-3-3h0Z" fill="#ddd"/></g><g clip-path="#h"><rect x="48" y="17.99" width="48" height="6.04" rx="3" ry="3" fill="#0069ba"/></g></g><g id="i"><line x1="54" y1="17" x2="58" y2="13" fill="#fff" stroke="#e6e6e6" stroke-miterlimit="10"/><g><circle cx="61.5" cy="9.5" r="3.5" fill="#fff"/><path d="M61.5,6.5c1.65,0,3,1.35,3,3s-1.35,3-3,3-3-1.35-3-3,1.35-3,3-3m0-1c-2.21,0-4,1.79-4,4s1.79,4,4,4,4-1.79,4-4-1.79-4-4-4h0Z" fill="#e6e6e6"/></g></g></g><g id="j" opacity=".4"><g><g><rect x="96.5" y=".5" width="47" height="23" rx="2.5" ry="2.5" fill="#fff"/><path d="M141,1c1.1,0,2,.9,2,2V21c0,1.1-.9,2-2,2h-42c-1.1,0-2-.9-2-2V3c0-1.1,.9-2,2-2h42m0-1h-42c-1.66,0-3,1.34-3,3V21c0,1.66,1.34,3,3,3h42c1.66,0,3-1.34,3-3V3c0-1.66-1.34-3-3-3h0Z" fill="#e6e6e6"/></g><g clip-path="#k"><g><path d="M99,23.53c-1.38,0-2.5-1.12-2.5-2.5s1.12-2.5,2.5-2.5h42c1.38,0,2.5,1.12,2.5,2.5s-1.12,2.5-2.5,2.5h-42Z" fill="#fff"/><path d="M141,19.03c1.1,0,2,.9,2,2s-.9,2-2,2h-42c-1.1,0-2-.9-2-2s.9-2,2-2h42m0-1h-42c-1.66,0-3,1.34-3,3s1.34,3,3,3h42c1.66,0,3-1.34,3-3s-1.34-3-3-3h0Z" fill="#838383"/></g></g></g><g id="l"><line x1="102" y1="17" x2="106" y2="13" fill="#fff" stroke="#e6e6e6" stroke-miterlimit="10"/><g><circle cx="109.5" cy="9.5" r="3.5" fill="#fff"/><path d="M109.5,6.5c1.65,0,3,1.35,3,3s-1.35,3-3,3-3-1.35-3-3,1.35-3,3-3m0-1c-2.21,0-4,1.79-4,4s1.79,4,4,4,4-1.79,4-4-1.79-4-4-4h0Z" fill="#e6e6e6"/></g></g></g><g id="m"><g><rect x="144.5" y=".5" width="47" height="23" rx="2.5" ry="2.5" fill="#fff"/><path d="M189,1c1.1,0,2,.9,2,2V21c0,1.1-.9,2-2,2h-42c-1.1,0-2-.9-2-2V3c0-1.1,.9-2,2-2h42m0-1h-42c-1.66,0-3,1.34-3,3V21c0,1.66,1.34,3,3,3h42c1.66,0,3-1.34,3-3V3c0-1.66-1.34-3-3-3h0Z" fill="#009ee0"/></g><g id="n"><line x1="150" y1="17" x2="154" y2="13" fill="#fff" stroke="#e6e6e6" stroke-miterlimit="10"/><g><circle cx="157.5" cy="9.5" r="3.5" fill="#fff"/><path d="M157.5,6.5c1.65,0,3,1.35,3,3s-1.35,3-3,3-3-1.35-3-3,1.35-3,3-3m0-1c-2.21,0-4,1.79-4,4s1.79,4,4,4,4-1.79,4-4-1.79-4-4-4h0Z" fill="#e6e6e6"/></g></g></g><g id="o"><g><g><rect x="192.5" y=".5" width="47" height="23" rx="2.5" ry="2.5" fill="#fff"/><path d="M237,1c1.1,0,2,.9,2,2V21c0,1.1-.9,2-2,2h-42c-1.1,0-2-.9-2-2V3c0-1.1,.9-2,2-2h42m0-1h-42c-1.66,0-3,1.34-3,3V21c0,1.66,1.34,3,3,3h42c1.66,0,3-1.34,3-3V3c0-1.66-1.34-3-3-3h0Z" fill="#ddd"/></g><g clip-path="#p"><rect x="192" y="17.99" width="48" height="6.04" rx="3" ry="3" fill="#0069ba"/></g></g><g id="q"><line x1="198" y1="17" x2="202" y2="13" fill="#fff" stroke="#e6e6e6" stroke-miterlimit="10"/><g><circle cx="205.5" cy="9.5" r="3.5" fill="#fff"/><path d="M205.5,6.5c1.65,0,3,1.35,3,3s-1.35,3-3,3-3-1.35-3-3,1.35-3,3-3m0-1c-2.21,0-4,1.79-4,4s1.79,4,4,4,4-1.79,4-4-1.79-4-4-4h0Z" fill="#e6e6e6"/></g></g></g></g></g></svg>