<svg xmlns="http://www.w3.org/2000/svg" viewBox="0 0 50.3 51.49"><g id="Calque_2" data-name="Calque 2"><g id="Draw"><g id="Aide-En-Ligne-Point-Interrogation_48_1"><g id="Masque"><rect x="2.3" y="3.49" width="48" height="48" fill="none"/></g><g opacity="0.2"><path d="M23.5.5a23,23,0,1,0,23,23A23,23,0,0,0,23.5.5Z" transform="translate(-0.5 -0.5)" fill="#53a93f"/></g><path d="M23.5,1.5a22,22,0,1,1-22,22,22,22,0,0,1,22-22m0-1a23,23,0,1,0,23,23,23,23,0,0,0-23-23Z" transform="translate(-0.5 -0.5)" fill="#53a93f"/><path d="M21.66,30.15a10.1,10.1,0,0,1,.67-3.84,11.47,11.47,0,0,1,2.72-3.42,25.53,25.53,0,0,0,2.69-2.79,6.2,6.2,0,0,0,.92-1.79A7,7,0,0,0,29,16.08a5.46,5.46,0,0,0-1.4-4,5.18,5.18,0,0,0-3.91-1.45,5.85,5.85,0,0,0-4.08,1.39A4.91,4.91,0,0,0,18,15.8H15.5a6.82,6.82,0,0,1,2.34-5.31,8.58,8.58,0,0,1,5.84-2,7.89,7.89,0,0,1,5.72,2A7.29,7.29,0,0,1,31.5,16a8.42,8.42,0,0,1-1,4.09,17.93,17.93,0,0,1-3.92,4.46,6.73,6.73,0,0,0-2.39,5.57Zm-.34,6.76a1.65,1.65,0,0,1,.45-1.17,1.67,1.67,0,0,1,1.28-.47,1.69,1.69,0,0,1,1.27.47,1.59,1.59,0,0,1,.48,1.17A1.49,1.49,0,0,1,24.32,38a1.72,1.72,0,0,1-1.27.46A1.7,1.7,0,0,1,21.77,38,1.54,1.54,0,0,1,21.32,36.91Z" transform="translate(-0.5 -0.5)" fill="#53a93f"/></g></g></g></svg>