<?xml version="1.0" encoding="UTF-8"?><svg xmlns="http://www.w3.org/2000/svg" width="60" height="12" viewBox="0 0 60 12"><g id="a"/><g id="b"><g id="c"><g id="d"><rect id="e" width="12" height="12" fill="none"/><g><line x1="3" y1="3" x2="9" y2="9" fill="none" stroke="#838383" stroke-miterlimit="10"/><line x1="3" y1="9" x2="5" y2="7" fill="none" stroke="#838383" stroke-miterlimit="10"/><line x1="6" y1="6" x2="9" y2="3" fill="none" stroke="#838383" stroke-miterlimit="10"/></g></g><g id="f"><rect id="g" x="12" width="12" height="12" fill="none"/><g><line x1="15" y1="3" x2="21" y2="9" fill="none" stroke="#e55348" stroke-miterlimit="10"/><line x1="18" y1="6" x2="21" y2="3" fill="none" stroke="#e55348" stroke-miterlimit="10"/><line x1="15" y1="9" x2="17" y2="7" fill="none" stroke="#e55348" stroke-miterlimit="10"/></g></g><g id="h" opacity=".4"><rect id="i" x="24" width="12" height="12" fill="none"/><g><line x1="27" y1="3" x2="33" y2="9" fill="none" stroke="#838383" stroke-miterlimit="10"/><line x1="30" y1="6" x2="33" y2="3" fill="none" stroke="#838383" stroke-miterlimit="10"/><line x1="27" y1="9" x2="29" y2="7" fill="none" stroke="#838383" stroke-miterlimit="10"/></g></g><g id="j"><rect id="k" x="36" width="12" height="12" fill="none"/><g><line x1="39" y1="3" x2="45" y2="9" fill="none" stroke="#838383" stroke-miterlimit="10"/><line x1="39" y1="9" x2="41" y2="7" fill="none" stroke="#838383" stroke-miterlimit="10"/><line x1="42" y1="6" x2="45" y2="3" fill="none" stroke="#838383" stroke-miterlimit="10"/></g></g><g id="l"><rect id="m" x="48" width="12" height="12" fill="none"/><g><line x1="51" y1="3" x2="57" y2="9" fill="none" stroke="#e55348" stroke-miterlimit="10"/><line x1="54" y1="6" x2="57" y2="3" fill="none" stroke="#e55348" stroke-miterlimit="10"/><line x1="51" y1="9" x2="53" y2="7" fill="none" stroke="#e55348" stroke-miterlimit="10"/></g></g></g></g></svg>