<svg xmlns="http://www.w3.org/2000/svg" width="16" height="16" viewBox="0 0 16 16"><rect width="16" height="16" fill="none"/><path d="M15,2.7,14,.2c0-.2-.2-.2-.3-.1L8.4,7.6l-.2.3H7.8l-.2-.3L2.3.1C2.2,0,2,0,2,.2L1,2.7a1.3,1.3,0,0,0,.1.6l6.5,8.1h.8l6.5-8.1A1.3,1.3,0,0,0,15,2.7ZM8.3,10.3H7.7a1.1,1.1,0,0,1-.5-.9.9.9,0,0,1,.5-.8h.6a1,1,0,0,1,.7.9A1,1,0,0,1,8.3,10.3Z" fill="#999"/><path d="M4,11a2,2,0,1,1-2,2,2,2,0,0,1,2-2m0-1a3,3,0,0,0,0,6,3,3,0,0,0,0-6Z" fill="#83beec"/><path d="M12,11a2,2,0,1,1-2,2,2,2,0,0,1,2-2m0-1a3,3,0,1,0,3,3,2.9,2.9,0,0,0-3-3Z" fill="#83beec"/></svg>