<svg xmlns="http://www.w3.org/2000/svg" xmlns:xlink="http://www.w3.org/1999/xlink" width="16" height="16" viewBox="0 0 16 16"><defs><clipPath id="a" transform="translate(0 0)"><polygon points="14 5 14 0 0 0 0 16 7 16 7 5 14 5" fill="none"/></clipPath><clipPath id="b" transform="translate(0 0)"><rect width="16" height="16" fill="none"/></clipPath><clipPath id="e" transform="translate(0 0)"><rect x="1" y="2" width="13" height="14" fill="none"/></clipPath><clipPath id="f" transform="translate(0 0)"><rect x="7" y="6" width="10" height="10" fill="none"/></clipPath><clipPath id="i" transform="translate(0 0)"><rect x="8" y="6" width="8" height="10" fill="none"/></clipPath></defs><rect width="16" height="16" fill="none"/><g clip-path="url(#a)"><g clip-path="url(#b)"><g clip-path="url(#b)"><path d="M7,1H8V2H7ZM6,0V2H5V4h5V2H9V0Z" transform="translate(0 0)" fill="#777"/><g clip-path="url(#b)"><g opacity="0.2"><g clip-path="url(#e)"><polygon points="11 2 11 5 4 5 4 2 1 2 1 16 14 16 14 6.86 14 2 11 2" fill="#f8db8f"/></g></g></g><path d="M4,6h8V3h1V15H2V3H3V6Zm7-4V5H4V2H1V16H14V2Z" transform="translate(0 0)" fill="#e7c146"/></g></g></g><g clip-path="url(#f)"><g clip-path="url(#f)"><g clip-path="url(#f)"><g opacity="0.8"><g clip-path="url(#i)"><rect x="8" y="6" width="8" height="10" fill="#fff"/></g></g></g><path d="M9,7h6v8H9ZM8,16h8V6H8Z" transform="translate(0 0)" fill="#777"/><rect x="10" y="11" width="4" height="1" fill="#83beec"/><rect x="10" y="13" width="4" height="1" fill="#83beec"/><rect x="10" y="9" width="4" height="1" fill="#83beec"/></g></g></svg>