<?xml version="1.0" encoding="UTF-8"?><svg xmlns="http://www.w3.org/2000/svg" width="80" height="16" xmlns:xlink="http://www.w3.org/1999/xlink" viewBox="0 0 80 16"><defs><style>.s{clip-path:url(#l);}.t{opacity:.8;}.u{clip-path:url(#o);}.v{opacity:.4;}.w{fill:none;}.x{clip-path:url(#f);}.y{clip-path:url(#r);}.a`{fill:#838383;}.aa{clip-path:url(#i);}</style><clipPath id="f"><rect width="16" height="16" fill="none"/></clipPath><clipPath id="i"><rect x="16" width="16" height="16" fill="none"/></clipPath><clipPath id="l"><rect x="32" width="16" height="16" fill="none"/></clipPath><clipPath id="o"><rect x="48" width="16" height="16" fill="none"/></clipPath><clipPath id="r"><rect x="64" width="16" height="16" fill="none"/></clipPath></defs><g id="a"/><g id="b"><g id="c"><g id="d"><rect id="e" width="16" height="16" fill="none"/><g clip-path="#f"><rect x="8" y="2" width="1" height="13" fill="#838383"/><rect x="10" y="8" width="5" height="1" fill="#838383"/><rect x="2" y="8" width="7" height="1" fill="#838383"/></g></g><g id="g"><rect id="h" x="16" width="16" height="16" fill="none"/><g clip-path="#i"><rect x="24" y="2" width="1" height="13" fill="#838383"/><rect x="26" y="8" width="5" height="1" fill="#838383"/><rect x="18" y="8" width="7" height="1" fill="#838383"/></g></g><g id="j" opacity=".4"><rect id="k" x="32" width="16" height="16" fill="none"/><g clip-path="#l"><rect x="40" y="2" width="1" height="13" fill="#838383"/><rect x="42" y="8" width="5" height="1" fill="#838383"/><rect x="34" y="8" width="7" height="1" fill="#838383"/></g></g><g id="m"><rect id="n" x="48" width="16" height="16" fill="none"/><g clip-path="#o"><rect x="56" y="2" width="1" height="13" fill="#838383"/><rect x="58" y="8" width="5" height="1" fill="#838383"/><rect x="50" y="8" width="7" height="1" fill="#838383"/></g></g><g id="p" opacity=".8"><rect id="q" x="64" width="16" height="16" fill="none"/><g clip-path="#r"><rect x="72" y="2" width="1" height="13" fill="#838383"/><rect x="74" y="8" width="5" height="1" fill="#838383"/><rect x="66" y="8" width="7" height="1" fill="#838383"/></g></g></g></g></svg>