<svg xmlns="http://www.w3.org/2000/svg" viewBox="0 0 16 16"><g id="Calque_2" data-name="Calque 2"><g id="Draw"><g id="Information-Informer-Commenter-Bulle-A-Propos_24_1"><g id="Masque"><rect width="16" height="16" fill="none"/></g><path d="M8.37,1C4,1,.38,4,.38,7.66a6.33,6.33,0,0,0,3,5.23L3.1,16l2.48-2.1a9.41,9.41,0,0,0,2.79.42c4.42,0,8-3,8-6.66S12.79,1,8.37,1Z" transform="translate(-0.38)" fill="#83beec" opacity="0.2"/><path d="M8.38,1.75c4,0,7.24,2.65,7.24,5.91s-3.25,5.91-7.24,5.91a8.53,8.53,0,0,1-2.58-.39l-.39-.12-.32.27-1,.89L4.17,13l0-.46-.38-.25a5.56,5.56,0,0,1-2.71-4.6c0-3.26,3.26-5.91,7.26-5.91m0-.75C4,1,.38,4,.38,7.66a6.33,6.33,0,0,0,3,5.23L3.1,16l2.48-2.1a9.43,9.43,0,0,0,2.8.42c4.41,0,8-3,8-6.66S12.79,1,8.38,1Z" transform="translate(-0.38)" fill="#83beec"/><path d="M8.27,11.48a.16.16,0,0,0,.13.07.36.36,0,0,0,.24-.1,4.29,4.29,0,0,0,.76-.95l.25.14c-.72,1.24-1.47,1.86-2.27,1.86a1,1,0,0,1-.73-.26.86.86,0,0,1-.27-.65,2.44,2.44,0,0,1,.12-.67l1-3.38a3,3,0,0,0,.14-.72.34.34,0,0,0-.14-.28.48.48,0,0,0-.36-.13H6.87L7,6.14l2.4-.39h.42l-1.45,5a3.38,3.38,0,0,0-.11.57A.2.2,0,0,0,8.27,11.48Zm1.8-7.2a1,1,0,0,1-.74.3,1,1,0,0,1-.72-.3,1,1,0,0,1-.31-.74,1,1,0,0,1,.3-.73,1,1,0,0,1,.73-.31,1,1,0,0,1,.74.31,1,1,0,0,1,.31.73A1,1,0,0,1,10.07,4.28Z" transform="translate(-0.38)" fill="#83beec"/></g></g></g></svg>