<svg xmlns="http://www.w3.org/2000/svg" xmlns:xlink="http://www.w3.org/1999/xlink" width="16" height="16" viewBox="0 0 16 16"><defs><clipPath id="a"><path d="M0,0V8H8V6h8V0ZM0,16H16V8H8v2H0Z" fill="none"/></clipPath></defs><rect width="16" height="16" fill="none"/><g clip-path="url(#a)"><path d="M15.5,8A7.6,7.6,0,0,1,8,15.5,7.6,7.6,0,0,1,.5,8" fill="none" stroke="#53a93f" stroke-miterlimit="10"/><path d="M.5,8A7.6,7.6,0,0,1,8,.5,7.6,7.6,0,0,1,15.5,8" fill="none" stroke="#53a93f" stroke-miterlimit="10"/><polyline points="0.5 16 0.5 10.5 6 10.5" fill="none" stroke="#53a93f" stroke-miterlimit="10"/><polyline points="15.5 0 15.5 5.5 10 5.5" fill="none" stroke="#53a93f" stroke-miterlimit="10"/></g></svg>