<svg xmlns="http://www.w3.org/2000/svg" xmlns:xlink="http://www.w3.org/1999/xlink" width="16" height="16" viewBox="0 0 16 16"><defs><clipPath id="a"><polygon points="0 0 0 16 3 16 3 10 13 10 13 16 16 16 16 0 0 0" fill="none"/></clipPath><clipPath id="b"><rect width="16.7" height="4" fill="none"/></clipPath></defs><rect width="16" height="16" fill="none"/><g clip-path="url(#a)"><g opacity="0.8"><rect y="5" width="16" height="8" rx="2" fill="#fff"/></g><path d="M14,6a.9.9,0,0,1,1,1v4a.9.9,0,0,1-1,1H2a.9.9,0,0,1-1-1V7A.9.9,0,0,1,2,6H14m0-1H2A2,2,0,0,0,0,7v4a2,2,0,0,0,2,2H14a2,2,0,0,0,2-2V7a2,2,0,0,0-2-2Z" fill="#777"/></g><g clip-path="url(#b)"><g opacity="0.8"><rect x="4" width="8" height="5.33" fill="#fff"/></g><path d="M11,1V4.3H5V1h6m1-1H4V5.3h8V0Z" fill="#777"/></g><g opacity="0.8"><rect x="4" y="11" width="8" height="5" fill="#fff"/></g><path d="M11,12v3H5V12h6m1-1H4v5h8V11Z" fill="#777"/><rect x="6" y="13" width="4" height="1" fill="#83beec"/><rect x="3" y="6" width="10" height="3" fill="#83beec"/><rect x="13" y="9" width="1" height="1" fill="#53a93f"/></svg>