<?xml version="1.0" encoding="UTF-8"?><svg xmlns="http://www.w3.org/2000/svg" width="360" height="28" xmlns:xlink="http://www.w3.org/1999/xlink" viewBox="0 0 360 28"><defs><style>.o{fill:#ddd;}.p{fill:#fff;}.q{stroke:#838383;stroke-miterlimit:10;}.q,.r{fill:none;}.s{opacity:.4;}.t{fill:#009ee0;}.u{clip-path:url(#d);}.v{fill:#d9f4ff;}</style><clipPath id="d"><rect y="3" width="360" height="22" fill="none"/></clipPath></defs><g id="a"/><g id="b"><g id="c"><g clip-path="#d"><g id="e"><g><rect x=".5" y="3.5" width="71" height="24" rx="2.5" ry="2.5" fill="#fff"/><path d="M69,4c1.1,0,2,.9,2,2V25c0,1.1-.9,2-2,2H3c-1.1,0-2-.9-2-2V6c0-1.1,.9-2,2-2H69m0-1H3c-1.66,0-3,1.34-3,3V25c0,1.66,1.34,3,3,3H69c1.66,0,3-1.34,3-3V6c0-1.66-1.34-3-3-3h0Z" fill="#ddd"/></g><g id="f"><polyline points="59 11 63 15 67 11" fill="none" stroke="#838383" stroke-miterlimit="10"/><rect x="53" y="3" width="19" height="22" fill="none"/></g></g><g id="g"><g><rect x="72.5" y=".5" width="71" height="24" rx="2.5" ry="2.5" fill="#fff"/><path d="M141,1c1.1,0,2,.9,2,2V22c0,1.1-.9,2-2,2H75c-1.1,0-2-.9-2-2V3c0-1.1,.9-2,2-2h66m0-1H75c-1.66,0-3,1.34-3,3V22c0,1.66,1.34,3,3,3h66c1.66,0,3-1.34,3-3V3c0-1.66-1.34-3-3-3h0Z" fill="#ddd"/></g><g id="h"><polyline points="139 15 135 11 131 15" fill="none" stroke="#838383" stroke-miterlimit="10"/><rect x="125" y="3" width="19" height="22" fill="none"/></g></g><g id="i"><g opacity=".4"><rect x="144.5" y="3.5" width="71" height="24" rx="2.5" ry="2.5" fill="#fff"/><path d="M213,4c1.1,0,2,.9,2,2V25c0,1.1-.9,2-2,2h-66c-1.1,0-2-.9-2-2V6c0-1.1,.9-2,2-2h66m0-1h-66c-1.66,0-3,1.34-3,3V25c0,1.66,1.34,3,3,3h66c1.66,0,3-1.34,3-3V6c0-1.66-1.34-3-3-3h0Z" fill="#ddd"/></g><g id="j" opacity=".4"><polyline points="203 11 207 15 211 11" fill="none" stroke="#838383" stroke-miterlimit="10"/><rect x="197" y="3" width="19" height="22" fill="none"/></g></g><g id="k"><g><rect x="216.5" y="3.5" width="71" height="24" rx="2.5" ry="2.5" fill="#fff"/><path d="M285,4c1.1,0,2,.9,2,2V25c0,1.1-.9,2-2,2h-66c-1.1,0-2-.9-2-2V6c0-1.1,.9-2,2-2h66m0-1h-66c-1.66,0-3,1.34-3,3V25c0,1.66,1.34,3,3,3h66c1.66,0,3-1.34,3-3V6c0-1.66-1.34-3-3-3h0Z" fill="#009ee0"/></g><g id="l"><polyline points="275 11 279 15 283 11" fill="none" stroke="#838383" stroke-miterlimit="10"/><rect x="269" y="3" width="19" height="22" fill="none"/></g></g><g id="m"><g><rect x="288.5" y="3.5" width="71" height="24" rx="2.5" ry="2.5" fill="#d9f4ff"/><path d="M357,4c1.1,0,2,.9,2,2V25c0,1.1-.9,2-2,2h-66c-1.1,0-2-.9-2-2V6c0-1.1,.9-2,2-2h66m0-1h-66c-1.66,0-3,1.34-3,3V25c0,1.66,1.34,3,3,3h66c1.66,0,3-1.34,3-3V6c0-1.66-1.34-3-3-3h0Z" fill="#ddd"/></g><g id="n"><polyline points="347 11 351 15 355 11" fill="none" stroke="#838383" stroke-miterlimit="10"/><rect x="341" y="3" width="19" height="22" fill="none"/></g></g></g></g></g></svg>