<?xml version="1.0" encoding="UTF-8"?><svg id="Calque_2" xmlns="http://www.w3.org/2000/svg" width="358" height="50" viewBox="0 0 358 50"><g id="Selection_OK_ZR"><rect id="Frame" width="72" height="50" fill="none"/><g id="Repos"><g opacity=".3"><rect x="2" y="2" width="68" height="46" rx="3" ry="3" fill="#00b7ff"/></g><path d="M67,3c1.1,0,2,.9,2,2V45c0,1.1-.9,2-2,2H5c-1.1,0-2-.9-2-2V5c0-1.1,.9-2,2-2h62m0-1H5c-1.66,0-3,1.34-3,3V45c0,1.66,1.34,3,3,3h62c1.66,0,3-1.34,3-3V5c0-1.66-1.34-3-3-3h0Z" fill="#00b7ff"/><polyline points="32.65 25 41 35 60 14" fill="none" stroke="#53a93f" stroke-linecap="round" stroke-linejoin="round" stroke-width="2"/></g><g id="Enfoncé"><g opacity=".3"><rect x="74" y="2" width="68" height="46" rx="3" ry="3" fill="#00b7ff"/></g><path d="M139,3c1.1,0,2,.9,2,2V45c0,1.1-.9,2-2,2h-62c-1.1,0-2-.9-2-2V5c0-1.1,.9-2,2-2h62m0-1h-62c-1.66,0-3,1.34-3,3V45c0,1.66,1.34,3,3,3h62c1.66,0,3-1.34,3-3V5c0-1.66-1.34-3-3-3h0Z" fill="#00b7ff"/><polyline points="104.65 25 113 35 132 14" fill="none" stroke="#53a93f" stroke-linecap="round" stroke-linejoin="round" stroke-width="2"/></g><g id="Focus"><g opacity=".3"><rect x="218" y="2" width="68" height="46" rx="3" ry="3" fill="#00b7ff"/></g><path d="M283,3c1.1,0,2,.9,2,2V45c0,1.1-.9,2-2,2h-62c-1.1,0-2-.9-2-2V5c0-1.1,.9-2,2-2h62m0-1h-62c-1.66,0-3,1.34-3,3V45c0,1.66,1.34,3,3,3h62c1.66,0,3-1.34,3-3V5c0-1.66-1.34-3-3-3h0Z" fill="#00b7ff"/><polyline points="248.65 25 257 35 276 14" fill="none" stroke="#53a93f" stroke-linecap="round" stroke-linejoin="round" stroke-width="2"/></g><g id="Survol"><g opacity=".15"><rect x="290" y="2" width="68" height="46" rx="3" ry="3" fill="#00b7ff"/></g><g opacity="0"><path d="M355,3c1.1,0,2,.9,2,2V45c0,1.1-.9,2-2,2h-62c-1.1,0-2-.9-2-2V5c0-1.1,.9-2,2-2h62m0-1h-62c-1.66,0-3,1.34-3,3V45c0,1.66,1.34,3,3,3h62c1.66,0,3-1.34,3-3V5c0-1.66-1.34-3-3-3h0Z" fill="#00b7ff"/></g><polyline points="320.65 25 329 35 348 14" fill="none" stroke="#53a93f" stroke-linecap="round" stroke-linejoin="round" stroke-width="2"/></g></g></svg>