<?xml version="1.0" encoding="UTF-8"?><svg id="Calque_2" xmlns="http://www.w3.org/2000/svg" width="120" height="24" viewBox="0 0 120 24"><g id="Selection"><rect id="Frame" width="120" height="24" fill="none"/><g id="Repos"><g opacity=".3"><rect width="24" height="24" rx="3" ry="3" fill="#00b7ff"/></g><path d="M21,1c1.1,0,2,.9,2,2V21c0,1.1-.9,2-2,2H3c-1.1,0-2-.9-2-2V3C1,1.9,1.9,1,3,1H21m0-1H3C1.34,0,0,1.34,0,3V21c0,1.66,1.34,3,3,3H21c1.66,0,3-1.34,3-3V3c0-1.66-1.34-3-3-3h0Z" fill="#00b7ff"/></g><g id="Enfoncé"><g opacity=".3"><rect x="24" width="24" height="24" rx="3" ry="3" fill="#00b7ff"/></g><path d="M45,1c1.1,0,2,.9,2,2V21c0,1.1-.9,2-2,2H27c-1.1,0-2-.9-2-2V3c0-1.1,.9-2,2-2h18m0-1H27c-1.66,0-3,1.34-3,3V21c0,1.66,1.34,3,3,3h18c1.66,0,3-1.34,3-3V3c0-1.66-1.34-3-3-3h0Z" fill="#00b7ff"/></g><g id="Focus"><g opacity=".3"><rect x="72" width="24" height="24" rx="3" ry="3" fill="#00b7ff"/></g><path d="M93,1c1.1,0,2,.9,2,2V21c0,1.1-.9,2-2,2h-18c-1.1,0-2-.9-2-2V3c0-1.1,.9-2,2-2h18m0-1h-18c-1.66,0-3,1.34-3,3V21c0,1.66,1.34,3,3,3h18c1.66,0,3-1.34,3-3V3c0-1.66-1.34-3-3-3h0Z" fill="#00b7ff"/></g><g id="Survol" opacity=".15"><rect x="96" width="24" height="24" rx="3" ry="3" fill="#00b7ff"/><g opacity="0"><rect x="96" width="24" height="24" rx="3" ry="3" fill="#00b7ff"/></g></g></g></svg>