<svg xmlns="http://www.w3.org/2000/svg" viewBox="0 0 16 16"><g id="Calque_2" data-name="Calque 2"><g id="Draw"><g id="Accueil-Maison_16_1"><rect id="Masque" width="16" height="16" fill="none"/><g opacity="0.8"><polygon points="14 15 14 6.5 8 1.5 2 6.5 2 15 14 15" fill="#fff"/></g><path d="M8,2.8,13,7v7H3V7L8,2.8M8,1.5l-6,5V15H14V6.5l-6-5Z" fill="#777"/><rect x="7" y="10" width="2" height="5" fill="#777"/><polygon points="13 4.8 13 2 11 2 11 3 13 4.8" fill="#777"/><polygon points="14 8 16 8 8 1 0 8 2 8 8 3 14 8" fill="#e55348"/></g></g></g></svg>