<?xml version="1.0" encoding="UTF-8"?><svg xmlns="http://www.w3.org/2000/svg" width="180" height="15" viewBox="0 0 180 15"><g id="a"/><g id="b"><g id="c"><rect id="d" x="0" width="180" height="15" fill="none"/><g id="e"><g id="f"><rect y="1" width="13" height="13" rx="3" ry="3" fill="#0069ba"/><polyline id="g" points="2.33 7.53 5.33 10.53 10.33 4.53" fill="none" stroke="#fff" stroke-linecap="round" stroke-linejoin="round"/></g><g id="h"><rect x="15" y="1" width="13" height="13" rx="3" ry="3" fill="#0069ba"/><polyline id="i" points="17.33 7.53 20.33 10.53 25.33 4.53" fill="none" stroke="#fff" stroke-linecap="round" stroke-linejoin="round"/></g><g id="j" opacity=".4"><g><rect x="30.5" y="1.5" width="12" height="12" rx="2.5" ry="2.5" fill="#fff"/><path d="M40,2c1.1,0,2,.9,2,2v7c0,1.1-.9,2-2,2h-7c-1.1,0-2-.9-2-2V4c0-1.1,.9-2,2-2h7m0-1h-7c-1.66,0-3,1.34-3,3v7c0,1.66,1.34,3,3,3h7c1.66,0,3-1.34,3-3V4c0-1.66-1.34-3-3-3h0Z" fill="#ddd"/></g><polyline id="k" points="32.33 7.53 35.33 10.53 40.33 4.53" fill="none" stroke="#ddd" stroke-linecap="round" stroke-linejoin="round"/></g><g id="l"><g opacity=".4"><rect x="45" y="1" width="13" height="13" rx="3" ry="3" fill="#0069ba"/></g><polyline id="m" points="47.33 7.53 50.33 10.53 55.33 4.53" fill="none" stroke="#fff" stroke-linecap="round" stroke-linejoin="round"/></g></g><g id="n"><g id="o"><g><rect x="60.5" y="1.5" width="12" height="12" rx="2.5" ry="2.5" fill="#fff"/><path d="M70,2c1.1,0,2,.9,2,2v7c0,1.1-.9,2-2,2h-7c-1.1,0-2-.9-2-2V4c0-1.1,.9-2,2-2h7m0-1h-7c-1.66,0-3,1.34-3,3v7c0,1.66,1.34,3,3,3h7c1.66,0,3-1.34,3-3V4c0-1.66-1.34-3-3-3h0Z" fill="#ddd"/></g></g><g id="p"><g><rect x="75.5" y="1.5" width="12" height="12" rx="2.5" ry="2.5" fill="#fff"/><path d="M85,2c1.1,0,2,.9,2,2v7c0,1.1-.9,2-2,2h-7c-1.1,0-2-.9-2-2V4c0-1.1,.9-2,2-2h7m0-1h-7c-1.66,0-3,1.34-3,3v7c0,1.66,1.34,3,3,3h7c1.66,0,3-1.34,3-3V4c0-1.66-1.34-3-3-3h0Z" fill="#ddd"/></g></g><g id="q" opacity=".4"><g><rect x="90.5" y="1.5" width="12" height="12" rx="2.5" ry="2.5" fill="#fff"/><path d="M100,2c1.1,0,2,.9,2,2v7c0,1.1-.9,2-2,2h-7c-1.1,0-2-.9-2-2V4c0-1.1,.9-2,2-2h7m0-1h-7c-1.66,0-3,1.34-3,3v7c0,1.66,1.34,3,3,3h7c1.66,0,3-1.34,3-3V4c0-1.66-1.34-3-3-3h0Z" fill="#ddd"/></g></g><g id="r"><g><rect x="105.5" y="1.5" width="12" height="12" rx="2.5" ry="2.5" fill="#fff"/><path d="M115,2c1.1,0,2,.9,2,2v7c0,1.1-.9,2-2,2h-7c-1.1,0-2-.9-2-2V4c0-1.1,.9-2,2-2h7m0-1h-7c-1.66,0-3,1.34-3,3v7c0,1.66,1.34,3,3,3h7c1.66,0,3-1.34,3-3V4c0-1.66-1.34-3-3-3h0Z" fill="#009ee0"/></g></g></g><g id="s"><g id="t"><rect x="120" y="1" width="13" height="13" rx="3" ry="3" fill="#0069ba"/><line id="u" x1="123.5" y1="7.5" x2="129.5" y2="7.5" fill="none" stroke="#fff" stroke-linecap="round" stroke-linejoin="round" stroke-width="2"/></g><g id="v"><rect x="135" y="1" width="13" height="13" rx="3" ry="3" fill="#0069ba"/><line id="w" x1="138.5" y1="7.5" x2="144.5" y2="7.5" fill="none" stroke="#fff" stroke-linecap="round" stroke-linejoin="round" stroke-width="2"/></g><g id="x" opacity=".4"><g><rect x="150.5" y="1.5" width="12" height="12" rx="2.5" ry="2.5" fill="#fff"/><path d="M160,2c1.1,0,2,.9,2,2v7c0,1.1-.9,2-2,2h-7c-1.1,0-2-.9-2-2V4c0-1.1,.9-2,2-2h7m0-1h-7c-1.66,0-3,1.34-3,3v7c0,1.66,1.34,3,3,3h7c1.66,0,3-1.34,3-3V4c0-1.66-1.34-3-3-3h0Z" fill="#ddd"/></g><line id="y" x1="153.5" y1="7.5" x2="159.5" y2="7.5" fill="none" stroke="#ddd" stroke-linecap="round" stroke-linejoin="round" stroke-width="2"/></g><g id="a`"><g opacity=".4"><rect x="165" y="1" width="13" height="13" rx="3" ry="3" fill="#0069ba"/></g><line id="aa" x1="168.5" y1="7.5" x2="174.5" y2="7.5" fill="none" stroke="#fff" stroke-linecap="round" stroke-linejoin="round" stroke-width="2"/></g></g></g></g></svg>