<svg xmlns="http://www.w3.org/2000/svg" width="16" height="11.01" viewBox="0 0 16 11.01"><g opacity="0.2"><rect y="7" width="6" height="4" fill="#83beec"/><rect x="11" y="6" width="4" height="6" transform="translate(3.98 21.99) rotate(-89.93)" fill="#83beec"/><rect x="5.53" y="1.03" width="4.95" height="4.95" transform="translate(-0.13 6.68) rotate(-45)" fill="#dd4b39"/></g><rect x="2" y="3" width="3" height="1" fill="#777"/><rect x="2" y="3" width="1" height="4" fill="#777"/><rect x="13" y="3" width="1" height="4" fill="#777"/><rect x="11" y="3" width="3" height="1" fill="#777"/><path d="M5,8v2H1V8H5M6,7H0v4H6V7Z" fill="#83beec"/><path d="M15,8v2H11V8h4m1-1H10v4h6V7Z" fill="#83beec"/><path d="M8,1.24,10.26,3.5,8,5.76,5.74,3.5,8,1.24M8,0,4.5,3.5,8,7l3.5-3.5L8,0Z" fill="#e55348"/></svg>