<svg xmlns="http://www.w3.org/2000/svg" viewBox="0 0 16 16"><g id="Calque_2" data-name="Calque 2"><g id="Draw"><g id="Regle-Metier_16_1"><g id="Masque"><rect width="16" height="16" fill="none"/></g><path d="M14,1a1,1,0,0,1,1,1V14a1,1,0,0,1-1,1H2a1,1,0,0,1-1-1V2A1,1,0,0,1,2,1H14m0-1H2A2,2,0,0,0,0,2V14a2,2,0,0,0,2,2H14a2,2,0,0,0,2-2V2a2,2,0,0,0-2-2Z" fill="#53a93f"/><path d="M9.79,14,8,10.35a2.35,2.35,0,0,0-.52-.8,1.08,1.08,0,0,0-.66-.21H6.74V14H3V2H8.67a7.66,7.66,0,0,1,2.38.29,2.69,2.69,0,0,1,1.41,1.15,3.58,3.58,0,0,1,.54,2,3.75,3.75,0,0,1-.41,1.79,3.51,3.51,0,0,1-1.12,1.21,3.25,3.25,0,0,1-.56.28,1.58,1.58,0,0,1,.27.18,3.17,3.17,0,0,1,.56.65,5.91,5.91,0,0,1,.49.76L14,14ZM7.89,6.66a3.72,3.72,0,0,0,.81-.15.61.61,0,0,0,.39-.26.84.84,0,0,0,.16-.51A.85.85,0,0,0,9,5.08a1.6,1.6,0,0,0-1.07-.24H6.74V6.66Z" fill="#53a93f"/></g></g></g></svg>