<svg xmlns="http://www.w3.org/2000/svg" xmlns:xlink="http://www.w3.org/1999/xlink" viewBox="0 0 16 16"><defs><clipPath id="clip-path" transform="translate(0 0)"><path d="M0,0V16H16V0ZM15.46,2.62,6.75,14.1a1,1,0,0,1-1.5.1L.72,9.67a1,1,0,0,1,0-1.43l.57-.55a1,1,0,0,1,1.41,0l2.47,2.51A1,1,0,0,0,6.7,10.1L13.31.93a1,1,0,0,1,1.5-.15l.54.51A1,1,0,0,1,15.46,2.62Z" fill="none"/></clipPath></defs><g id="Calque_2" data-name="Calque 2"><g id="Draw"><g id="Coche-Cercle-Activer-OK_16_1"><g id="Masque"><rect width="16" height="16" fill="none"/></g><g clip-path="url(#clip-path)"><g opacity="0.2"><circle cx="8" cy="8" r="8" fill="#53a93f"/></g><path d="M8,1A7,7,0,1,1,1,8,7,7,0,0,1,8,1M8,0a8,8,0,1,0,8,8A8,8,0,0,0,8,0Z" transform="translate(0 0)" fill="#53a93f"/></g><polyline points="15 1 6 13 2 9" fill="none" stroke="#53a93f" stroke-miterlimit="10" stroke-width="1"/></g></g></g></svg>