<svg xmlns="http://www.w3.org/2000/svg" viewBox="0 0 48 48"><g id="Calque_2" data-name="Calque 2"><g id="Draw"><g id="Attention-Avertissement-Warning-Point-Exclamation-Triangle_48_1"><rect id="Masque" x="0.01" width="47.98" height="48" fill="none"/><path d="M47.63,41,26.32,4.3a2.63,2.63,0,0,0-1.05-1,3,3,0,0,0-2.6,0,2.39,2.39,0,0,0-1.06,1L.33,41A2.66,2.66,0,0,0,0,42.31a2.53,2.53,0,0,0,.36,1.31,3.2,3.2,0,0,0,.87,1,2.65,2.65,0,0,0,1.5.46H45.27a2.44,2.44,0,0,0,1.5-.48,2.9,2.9,0,0,0,.87-.94A2.53,2.53,0,0,0,48,42.31,2.8,2.8,0,0,0,47.63,41Z" fill="#e7c146" opacity="0.2"/><path d="M24,4.05a2.08,2.08,0,0,1,.86.19,1.49,1.49,0,0,1,.62.57L46.76,41.49a1.63,1.63,0,0,1,.24.83,1.48,1.48,0,0,1-.23.8,2,2,0,0,1-.59.64,1.56,1.56,0,0,1-.91.28H2.73a1.63,1.63,0,0,1-.91-.27,2,2,0,0,1-.6-.67A1.44,1.44,0,0,1,1,42.32a1.57,1.57,0,0,1,.2-.79L22.48,4.82a1.3,1.3,0,0,1,.63-.57,1.94,1.94,0,0,1,.86-.2m0-1a3.12,3.12,0,0,0-1.3.29,2.39,2.39,0,0,0-1.06,1L.33,41A2.66,2.66,0,0,0,0,42.31a2.51,2.51,0,0,0,.36,1.31,3.2,3.2,0,0,0,.87,1,2.65,2.65,0,0,0,1.5.46H45.3a2.44,2.44,0,0,0,1.47-.48,2.9,2.9,0,0,0,.87-.94A2.51,2.51,0,0,0,48,42.31,2.8,2.8,0,0,0,47.63,41L26.32,4.3a2.63,2.63,0,0,0-1.05-1A3.12,3.12,0,0,0,24,3.05Z" fill="#e7c146"/><polygon points="21 14 27 14 26.18 35 21.81 35 21 14" fill="#e7c146"/><path d="M27,39a3,3,0,1,1-3-3A3,3,0,0,1,27,39Z" fill="#e7c146"/></g></g></g></svg>