<?xml version="1.0" encoding="UTF-8"?><svg xmlns="http://www.w3.org/2000/svg" width="240" height="48" viewBox="0 0 240 48"><g id="a"/><g id="b"><g id="c"><rect id="d" width="240" height="48" fill="none"/><g id="e"><rect y="12" width="47" height="24" rx="3" ry="3" fill="none"/><rect x="47" y="12" width="1" height="24" fill="#ddd"/></g><g id="f"><g><rect x="48.5" y="12.5" width="46" height="23" rx="2.5" ry="2.5" fill="#b2e9ff"/><path d="M92,13c1.1,0,2,.9,2,2v18c0,1.1-.9,2-2,2H51c-1.1,0-2-.9-2-2V15c0-1.1,.9-2,2-2h41m0-1H51c-1.66,0-3,1.34-3,3v18c0,1.66,1.34,3,3,3h41c1.66,0,3-1.34,3-3V15c0-1.66-1.34-3-3-3h0Z" fill="#009ee0"/></g><rect x="95" y="12" width="1" height="24" fill="#ddd"/></g><g id="g"><rect x="96" y="12" width="47" height="24" rx="3" ry="3" fill="none"/><rect x="143" y="12" width="1" height="24" fill="#ddd"/></g><g id="h"><path d="M188,13c1.1,0,2,.9,2,2v18c0,1.1-.9,2-2,2h-41c-1.1,0-2-.9-2-2V15c0-1.1,.9-2,2-2h41m0-1h-41c-1.66,0-3,1.34-3,3v18c0,1.66,1.34,3,3,3h41c1.66,0,3-1.34,3-3V15c0-1.66-1.34-3-3-3h0Z" fill="#009ee0"/><rect x="191" y="12" width="1" height="24" fill="#ddd"/></g><g id="i"><rect x="192" y="12" width="47" height="24" rx="3" ry="3" fill="#b2e9ff"/><rect x="239" y="12" width="1" height="24" fill="#ddd"/></g></g></g></svg>