<svg xmlns="http://www.w3.org/2000/svg" xmlns:xlink="http://www.w3.org/1999/xlink" viewBox="0 0 16 12"><defs><clipPath id="clip-path" transform="translate(0 -2)"><path d="M0,0V16H16V0ZM15,13H7V6h8Z" fill="none"/></clipPath><clipPath id="clip-path-2" transform="translate(0 -2)"><rect width="16" height="16" fill="none"/></clipPath><clipPath id="clip-path-5" transform="translate(0 -2)"><rect y="2" width="16" height="12" fill="none"/></clipPath><clipPath id="clip-path-6" transform="translate(0 -2)"><rect y="2" width="16" height="4" fill="none"/></clipPath><clipPath id="clip-path-7" transform="translate(0 -2)"><rect x="8" y="6.33" width="7" height="6.67" fill="none"/></clipPath></defs><g id="Calque_2" data-name="Calque 2"><g id="Draw"><g id="Modele-Fenetre_16_1"><g clip-path="url(#clip-path)"><g clip-path="url(#clip-path-2)"><g clip-path="url(#clip-path-2)"><g clip-path="url(#clip-path-2)"><g opacity="0.8"><g clip-path="url(#clip-path-5)"><rect width="16" height="12" fill="#fff"/></g></g><g opacity="0.3"><g clip-path="url(#clip-path-6)"><rect width="16" height="4" fill="#777"/></g></g></g><path d="M1,3H15V13H1ZM0,14H16V2H0Z" transform="translate(0 -2)" fill="#777"/><rect x="11" y="2" width="1" height="1" fill="#777"/><rect x="13" y="2" width="1" height="1" fill="#777"/><rect x="9" y="2" width="1" height="1" fill="#777"/></g></g></g><g clip-path="url(#clip-path-7)"><polygon points="12.31 4.99 11.5 8.65 10.69 4.99 8 4.99 8 11 9.4 11 9.4 6.5 10.74 11 12.2 11 13.6 6.5 13.6 11 15 11 15 4.99 12.31 4.99" fill="#e7c146"/></g></g></g></g></svg>