<?xml version="1.0" encoding="UTF-8"?><svg id="Calque_2" xmlns="http://www.w3.org/2000/svg" width="360" height="50" viewBox="0 0 360 50"><g id="Select_ZR_Fleche"><rect id="Frame" width="360" height="50" fill="none"/><g id="Repos"><g><polygon points=".5 49.5 .5 .5 58.7 .5 71.44 25 58.7 49.5 .5 49.5" fill="#b2e9ff"/><path d="M58.39,1l12.48,24-12.48,24H1V1H58.39m.61-1H0V50H59l13-25L59,0h0Z" fill="#009ee0"/></g><path d="M58.39,1l12.48,24-12.48,24H1V1H58.39m.61-1H0V50H59l13-25L59,0h0Z" fill="#00b7ff"/></g><g id="Enfoncé"><g><polygon points="72.5 49.5 72.5 .5 130.7 .5 143.44 25 130.7 49.5 72.5 49.5" fill="#b2e9ff"/><path d="M130.39,1l12.48,24-12.48,24h-57.39V1h57.39m.61-1h-59V50h59l13-25L131,0h0Z" fill="#009ee0"/></g><path d="M130.39,1l12.48,24-12.48,24h-57.39V1h57.39m.61-1h-59V50h59l13-25L131,0h0Z" fill="#00b7ff"/></g><g id="Focus"><g opacity=".3"><polygon points="275 50 216 50 216 0 275 0 288 25 275 50" fill="#00b7ff"/></g><path d="M274.39,1l12.48,24-12.48,24h-57.39V1h57.39m.61-1h-59V50h59l13-25L275,0h0Z" fill="#00b7ff"/></g><g id="Survol"><polygon points="347 50 288 50 288 0 347 0 360 25 347 50" fill="#d9f4ff"/><g opacity="0"><path d="M346.39,1l12.48,24-12.48,24h-57.39V1h57.39m.61-1h-59V50h59l13-25L347,0h0Z" fill="#00b7ff"/></g></g></g></svg>