<?xml version="1.0" encoding="UTF-8"?><svg xmlns="http://www.w3.org/2000/svg" width="33" height="53" viewBox="0 0 33 53"><g id="a"/><g id="b"><g id="c"><rect id="d" y="0" width="33" height="53" fill="none"/><g id="e"><rect id="f" y="42" width="33" height="11" fill="none"/><g id="g"><path d="M9,44v.46l-2.55,1.7-.45,.3v4.12l-1-1v-3.11l-.44-.3-2.56-1.75v-.43h7m1-1H1v1.95l3,2.05v3l2,2h1v-5l3-2v-2h0Z" fill="#838383"/></g><g id="h"><path d="M20,44v.46l-2.55,1.7-.45,.3v4.12l-1-1v-3.11l-.44-.3-2.56-1.75v-.43h7m1-1H12v1.95l3,2.05v3l2,2h1v-5l3-2v-2h0Z" fill="#009ee0"/></g><g id="i"><path d="M31,44v.46l-2.55,1.7-.45,.3v4.12l-1-1v-3.11l-.44-.3-2.56-1.75v-.43h7m1-1h-9v1.95l3,2.05v3l2,2h1v-5l3-2v-2h0Z" fill="#009ee0"/></g></g><g id="j"><rect id="k" y="31" width="33" height="11" fill="none"/><g id="l"><line x1="2.5" y1="34.5" x2="7.5" y2="34.5" fill="none" stroke="#838383" stroke-linecap="square" stroke-miterlimit="10"/><line x1="2.5" y1="32.5" x2="7.5" y2="32.5" fill="none" stroke="#838383" stroke-linecap="square" stroke-miterlimit="10"/><line x1="2.5" y1="36.5" x2="7.5" y2="36.5" fill="none" stroke="#838383" stroke-linecap="square" stroke-miterlimit="10"/></g><g id="m"><line x1="13.5" y1="34.5" x2="18.5" y2="34.5" fill="none" stroke="#009ee0" stroke-linecap="square" stroke-miterlimit="10"/><line x1="13.5" y1="32.5" x2="18.5" y2="32.5" fill="none" stroke="#009ee0" stroke-linecap="square" stroke-miterlimit="10"/><line x1="13.5" y1="36.5" x2="18.5" y2="36.5" fill="none" stroke="#009ee0" stroke-linecap="square" stroke-miterlimit="10"/></g><g id="n"><line x1="24.5" y1="34.5" x2="29.5" y2="34.5" fill="none" stroke="#009ee0" stroke-linecap="square" stroke-miterlimit="10"/><line x1="24.5" y1="32.5" x2="29.5" y2="32.5" fill="none" stroke="#009ee0" stroke-linecap="square" stroke-miterlimit="10"/><line x1="24.5" y1="36.5" x2="29.5" y2="36.5" fill="none" stroke="#009ee0" stroke-linecap="square" stroke-miterlimit="10"/></g></g><g id="o"><rect id="p" y="20" width="33" height="11" fill="none"/><g id="q"><line x1="1.59" y1="26.5" x2="4.5" y2="23.5" fill="none" stroke="#838383" stroke-miterlimit="10"/><circle cx="6.5" cy="21.5" r="3" fill="none" stroke="#838383" stroke-miterlimit="10"/></g><g id="r"><line x1="12.59" y1="26.5" x2="15.5" y2="23.5" fill="none" stroke="#009ee0" stroke-miterlimit="10"/><circle cx="17.5" cy="21.5" r="3" fill="none" stroke="#009ee0" stroke-miterlimit="10"/></g><g id="s"><line x1="23.59" y1="26.5" x2="26.5" y2="23.5" fill="none" stroke="#009ee0" stroke-miterlimit="10"/><circle cx="28.5" cy="21.5" r="3" fill="none" stroke="#009ee0" stroke-miterlimit="10"/></g></g><g id="t"><rect id="u" y="9" width="33" height="11" fill="none"/><polyline id="v" points="3 11.5 5.5 14 8 11.5" fill="none" stroke="#838383" stroke-miterlimit="10"/><polyline id="w" points="19 14 16.5 11.5 14 14" fill="none" stroke="#009ee0" stroke-miterlimit="10"/><polyline id="x" points="25 11.5 27.5 14 30 11.5" fill="none" stroke="#009ee0" stroke-miterlimit="10"/></g><g id="y"><rect id="a`" width="33" height="9" fill="none"/><g id="aa"><path d="M5.47,1.61L4.15,.3c-.4-.39-1.11-.4-1.51-.01L1.26,1.6c-.59,.56-.13,1.46,.75,1.46h2.7c.87,0,1.33-.89,.76-1.45Z" fill="#878586"/><path d="M1.25,5.39l1.33,1.31c.4,.39,1.11,.4,1.51,.01l1.37-1.31c.59-.56,.13-1.46-.75-1.46H2.01c-.87,0-1.33,.89-.76,1.45Z" fill="#878586"/></g><g id="ab"><path d="M16.61,1.61l-1.33-1.31c-.4-.39-1.11-.4-1.51-.01l-1.37,1.31c-.59,.56-.13,1.46,.75,1.46h2.7c.87,0,1.33-.89,.76-1.45Z" fill="#009ee0"/><path d="M12.39,5.39l1.33,1.31c.4,.39,1.11,.4,1.51,.01l1.37-1.31c.59-.56,.13-1.46-.75-1.46h-2.7c-.87,0-1.33,.89-.76,1.45Z" fill="#009ee0"/></g><g id="ac"><path d="M27.75,1.61l-1.33-1.31c-.4-.39-1.11-.4-1.51-.01l-1.37,1.31c-.59,.56-.13,1.46,.75,1.46h2.7c.87,0,1.33-.89,.76-1.45Z" fill="#009ee0"/><path d="M23.53,5.39l1.33,1.31c.4,.39,1.11,.4,1.51,.01l1.37-1.31c.59-.56,.13-1.46-.75-1.46h-2.7c-.87,0-1.33,.89-.76,1.45Z" fill="#009ee0"/></g></g></g></g></svg>