<svg xmlns="http://www.w3.org/2000/svg" xmlns:xlink="http://www.w3.org/1999/xlink" viewBox="0 0 16 16"><defs><clipPath id="clip-path" transform="translate(0 0)"><rect width="16" height="6" fill="none"/></clipPath><clipPath id="clip-path-2" transform="translate(0 0)"><rect width="16" height="16" fill="none"/></clipPath></defs><g id="Calque_2" data-name="Calque 2"><g id="Draw"><g id="Style-CSS-Palette-Couleur-Mise-En-Forme_16_1"><rect id="Masque" width="16" height="16" fill="none"/><g clip-path="url(#clip-path)"><g clip-path="url(#clip-path-2)"><g clip-path="url(#clip-path-2)"><g clip-path="url(#clip-path-2)"><g opacity="0.8"><g clip-path="url(#clip-path-2)"><path d="M9.16,16C4.93,16,0,14.11,0,8.8S5.14,0,8.83,0a4.66,4.66,0,0,1,2.63.72,3.08,3.08,0,0,1,1.46,1.81A4.5,4.5,0,0,1,12,5.58a4,4,0,0,0-.72,1.76,1.69,1.69,0,0,0,.35,1.21,3.84,3.84,0,0,0,2,1.12,4,4,0,0,1,1,.44l.06,0A2.58,2.58,0,0,1,16,12.87C15.71,14.68,12.85,16,9.16,16m2-4.68a1.58,1.58,0,0,0-1.71,1.4,1.58,1.58,0,0,0,1.71,1.41,1.58,1.58,0,0,0,1.71-1.41,1.58,1.58,0,0,0-1.71-1.4" transform="translate(0 0)" fill="#fff"/></g></g><path d="M8.83,1a3.66,3.66,0,0,1,2.05.54,2.2,2.2,0,0,1,1,1.17,3.92,3.92,0,0,1-.83,2.32,4.61,4.61,0,0,0-.87,2.27,2.72,2.72,0,0,0,.55,1.82,4.76,4.76,0,0,0,2.56,1.51,3.12,3.12,0,0,1,.71.27l.06.05a1.58,1.58,0,0,1,.85,1.74c-.07.53-.66,1.08-1.64,1.5a2.25,2.25,0,0,0,.59-1.51,2.61,2.61,0,0,0-2.75-2.44,2.62,2.62,0,0,0-2.75,2.44A2.46,2.46,0,0,0,10,14.94c-.27,0-.54,0-.83,0C7.8,15,1,14.67,1,8.8,1,4,5.58,1,8.83,1m0-1C5.14,0,0,3.35,0,8.8S4.93,16,9.16,16c3.69,0,6.55-1.32,6.8-3.13a2.58,2.58,0,0,0-1.25-2.72l-.06,0a4,4,0,0,0-1-.44,3.84,3.84,0,0,1-2-1.12,1.69,1.69,0,0,1-.35-1.21A4,4,0,0,1,12,5.58a4.5,4.5,0,0,0,.95-3.05A3.08,3.08,0,0,0,11.46.72,4.66,4.66,0,0,0,8.83,0m2.31,14.13a1.58,1.58,0,0,1-1.71-1.41,1.58,1.58,0,0,1,1.71-1.4,1.58,1.58,0,0,1,1.71,1.4,1.58,1.58,0,0,1-1.71,1.41" transform="translate(0 0)" fill="#777"/><path d="M3.89,9.05A1.72,1.72,0,0,1,2,7.57,1.72,1.72,0,0,1,3.89,6.08,1.71,1.71,0,0,1,5.77,7.57,1.71,1.71,0,0,1,3.89,9.05" transform="translate(0 0)" fill="#b3c833"/><path d="M6,5.43a1.37,1.37,0,0,1-1.5-1.18A1.37,1.37,0,0,1,6,3.07a1.37,1.37,0,0,1,1.5,1.18A1.37,1.37,0,0,1,6,5.43" transform="translate(0 0)" fill="#cd4f42"/><path d="M9.82,3.86a1.07,1.07,0,0,1-1.17-.93A1.07,1.07,0,0,1,9.82,2,1.08,1.08,0,0,1,11,2.93a1.08,1.08,0,0,1-1.18.93" transform="translate(0 0)" fill="#fc8521"/><path d="M5.79,13a2,2,0,0,1-2.14-1.69A2,2,0,0,1,5.79,9.62a2,2,0,0,1,2.14,1.69A2,2,0,0,1,5.79,13" transform="translate(0 0)" fill="#1aa1e1"/></g></g></g></g><rect x="0.5" y="7.5" width="15" height="8" fill="#fff"/><path d="M15,8v7H1V8H15m1-1H0v9H16V7Z" transform="translate(0 0)" fill="#83beec"/><rect x="3" y="13" width="3" height="1" fill="#777"/><rect x="2" y="10" width="1" height="3" fill="#777"/><rect x="3" y="9" width="3" height="1" fill="#777"/><rect x="7" y="10" width="1" height="2" fill="#777"/><rect x="9" y="11" width="1" height="2" fill="#777"/><rect x="8" y="9" width="2" height="1" fill="#777"/><rect x="7" y="13" width="2" height="1" fill="#777"/><rect x="8" y="11" width="1" height="1" fill="#777"/><polyline points="11 10 12 10 12 12 11 12" fill="#777"/><rect x="13" y="11" width="1" height="2" fill="#777"/><rect x="12" y="9" width="2" height="1" fill="#777"/><rect x="11" y="13" width="2" height="1" fill="#777"/><polyline points="12 11 13 11 13 12 12 12" fill="#777"/></g></g></g></svg>