<svg xmlns="http://www.w3.org/2000/svg" width="16" height="14" viewBox="0 0 16 14"><path d="M11.72,1a.44.44,0,0,1,.28.09v2.8a.33.33,0,0,1-.28.11h-.44A.47.47,0,0,1,11,3.91V1.11A.35.35,0,0,1,11.28,1h.44m0-1h-.44A1.2,1.2,0,0,0,10,1.09V3.91A1.2,1.2,0,0,0,11.28,5h.44A1.2,1.2,0,0,0,13,3.91V1.09A1.2,1.2,0,0,0,11.72,0Z" fill="#83beec"/><rect y="2" width="9" height="1" fill="#777"/><rect x="14" y="2" width="2" height="1" fill="#777"/><path d="M4.72,6A.47.47,0,0,1,5,6.09v2.8A.35.35,0,0,1,4.72,9H4.28A.44.44,0,0,1,4,8.91V6.11A.33.33,0,0,1,4.28,6h.44m0-1H4.28A1.2,1.2,0,0,0,3,6.09V8.91A1.2,1.2,0,0,0,4.28,10h.44A1.2,1.2,0,0,0,6,8.91V6.09A1.2,1.2,0,0,0,4.72,5Z" fill="#83beec"/><rect x="7" y="7" width="9" height="1" fill="#777"/><rect y="7" width="2" height="1" fill="#777"/><path d="M11.72,10a.44.44,0,0,1,.28.09v2.8a.33.33,0,0,1-.28.11h-.44a.47.47,0,0,1-.28-.09v-2.8a.35.35,0,0,1,.28-.11h.44m0-1h-.44A1.2,1.2,0,0,0,10,10.09v2.82A1.2,1.2,0,0,0,11.28,14h.44A1.2,1.2,0,0,0,13,12.91V10.09A1.2,1.2,0,0,0,11.72,9Z" fill="#83beec"/><rect y="11" width="9" height="1" fill="#777"/><rect x="14" y="11" width="2" height="1" fill="#777"/></svg>