<?xml version="1.0" encoding="UTF-8"?><svg xmlns="http://www.w3.org/2000/svg" width="120" height="24" xmlns:xlink="http://www.w3.org/1999/xlink" viewBox="0 0 120 24"><defs><style>.k{fill:#ddd;}.l{fill:#fff;}.m{clip-path:url(#h);}.n{opacity:0;}.o{opacity:.4;}.p{fill:#009ee0;}.q{fill:none;}.r{fill:#b2e9ff;}.s{fill:#f7f7f7;}.t{fill:#d9f4ff;}</style><clipPath id="h"><rect x="72" y="0" width="24" height="24" fill="none"/></clipPath></defs><g id="a"/><g id="b"><g id="c"><g id="d" opacity="0"><path d="M3,23.5c-1.38,0-2.5-1.12-2.5-2.5V3C.5,1.62,1.62,.5,3,.5H23.5V23.5H3Z" fill="#f7f7f7"/><path d="M23,1V23H3c-1.1,0-2-.9-2-2V3C1,1.9,1.9,1,3,1H23m1-1H3C1.34,0,0,1.34,0,3V21c0,1.66,1.34,3,3,3H24V0h0Z" fill="#ddd"/></g><g id="e"><path d="M27,23.5c-1.38,0-2.5-1.12-2.5-2.5V3c0-1.38,1.12-2.5,2.5-2.5h20.5V23.5H27Z" fill="#b2e9ff"/><path d="M47,1V23H27c-1.1,0-2-.9-2-2V3c0-1.1,.9-2,2-2h20m1-1H27c-1.66,0-3,1.34-3,3V21c0,1.66,1.34,3,3,3h21V0h0Z" fill="#009ee0"/></g><g id="f" opacity=".4"><path d="M51,23.5c-1.38,0-2.5-1.12-2.5-2.5V3c0-1.38,1.12-2.5,2.5-2.5h20.5V23.5h-20.5Z" fill="#f7f7f7"/><path d="M71,1V23h-20c-1.1,0-2-.9-2-2V3c0-1.1,.9-2,2-2h20m1-1h-21c-1.66,0-3,1.34-3,3V21c0,1.66,1.34,3,3,3h21V0h0Z" fill="#ddd"/></g><g id="g"><g clip-path="#h"><g id="i"><path d="M75,23.5c-1.38,0-2.5-1.12-2.5-2.5V3c0-1.38,1.12-2.5,2.5-2.5h21.5V23.5h-21.5Z" fill="#fff"/><path d="M96,1V23h-21c-1.1,0-2-.9-2-2V3c0-1.1,.9-2,2-2h21m1-1h-22c-1.66,0-3,1.34-3,3V21c0,1.66,1.34,3,3,3h22V0h0Z" fill="#009ee0"/></g></g></g><g id="j"><path d="M120,0V24h-21c-1.66,0-3-1.34-3-3V3c0-1.66,1.34-3,3-3h21Z" fill="#d9f4ff"/></g></g></g></svg>