<?xml version="1.0" encoding="UTF-8"?><svg xmlns="http://www.w3.org/2000/svg" width="80" height="16" viewBox="0 0 80 16"><g id="a"/><g id="b"><g id="c"><g id="d"><g id="e"><rect width="16" height="16" fill="none"/></g><g id="f"><line x1="2.5" y1="13.5" x2="6.5" y2="9.5" fill="none" stroke="#3a3a3a" stroke-miterlimit="10"/><path d="M10,3c1.65,0,3,1.35,3,3s-1.35,3-3,3-3-1.35-3-3,1.35-3,3-3m0-1c-2.21,0-4,1.79-4,4s1.79,4,4,4,4-1.79,4-4-1.79-4-4-4h0Z" fill="#3a3a3a"/></g></g><g id="g"><rect id="h" x="16" width="16" height="16" fill="none"/><g id="i"><line x1="18.5" y1="13.5" x2="22.5" y2="9.5" fill="none" stroke="#3a3a3a" stroke-miterlimit="10"/><path d="M26,3c1.65,0,3,1.35,3,3s-1.35,3-3,3-3-1.35-3-3,1.35-3,3-3m0-1c-2.21,0-4,1.79-4,4s1.79,4,4,4,4-1.79,4-4-1.79-4-4-4h0Z" fill="#3a3a3a"/></g></g><g id="j" opacity=".4"><rect id="k" x="32" width="16" height="16" fill="none"/><g id="l"><line x1="34.5" y1="13.5" x2="38.5" y2="9.5" fill="none" stroke="#3a3a3a" stroke-miterlimit="10"/><path d="M42,3c1.65,0,3,1.35,3,3s-1.35,3-3,3-3-1.35-3-3,1.35-3,3-3m0-1c-2.21,0-4,1.79-4,4s1.79,4,4,4,4-1.79,4-4-1.79-4-4-4h0Z" fill="#3a3a3a"/></g></g><g id="m"><rect id="n" x="48" width="16" height="16" fill="none"/><g id="o"><line x1="50.5" y1="13.5" x2="54.5" y2="9.5" fill="none" stroke="#3a3a3a" stroke-miterlimit="10"/><path d="M58,3c1.65,0,3,1.35,3,3s-1.35,3-3,3-3-1.35-3-3,1.35-3,3-3m0-1c-2.21,0-4,1.79-4,4s1.79,4,4,4,4-1.79,4-4-1.79-4-4-4h0Z" fill="#3a3a3a"/></g></g><g id="p"><g id="q"><rect x="64" width="16" height="16" fill="none"/></g><g id="r"><line x1="66.5" y1="13.5" x2="70.5" y2="9.5" fill="none" stroke="#777" stroke-miterlimit="10"/><path d="M74,3c1.65,0,3,1.35,3,3s-1.35,3-3,3-3-1.35-3-3,1.35-3,3-3m0-1c-2.21,0-4,1.79-4,4s1.79,4,4,4,4-1.79,4-4-1.79-4-4-4h0Z" fill="#777"/></g></g></g></g></svg>