<?xml version="1.0" encoding="UTF-8"?><svg xmlns="http://www.w3.org/2000/svg" width="120" height="25" xmlns:xlink="http://www.w3.org/1999/xlink" viewBox="0 0 120 25"><defs><style>.k{fill:#ddd;}.l{fill:#fff;}.m{clip-path:url(#h);}.n{opacity:0;}.o{opacity:.4;}.p{fill:#009ee0;}.q{fill:none;}.r{fill:#b2e9ff;}.s{fill:#f7f7f7;}.t{fill:#d9f4ff;}</style><clipPath id="h"><rect x="72" y="0" width="24" height="24" fill="none"/></clipPath></defs><g id="a"/><g id="b"><g id="c"><g id="d" opacity="0"><path d="M.5,23.5V3C.5,1.62,1.62,.5,3,.5H21c1.38,0,2.5,1.12,2.5,2.5V23.5H.5Z" fill="#f7f7f7"/><path d="M21,1c1.1,0,2,.9,2,2V23H1V3C1,1.9,1.9,1,3,1H21m0-1H3C1.34,0,0,1.34,0,3V24H24V3c0-1.66-1.34-3-3-3h0Z" fill="#ddd"/></g><g id="e"><path d="M24.5,23.5V3c0-1.38,1.12-2.5,2.5-2.5h18c1.38,0,2.5,1.12,2.5,2.5V23.5H24.5Z" fill="#b2e9ff"/><path d="M45,1c1.1,0,2,.9,2,2V23H25V3c0-1.1,.9-2,2-2h18m0-1H27c-1.66,0-3,1.34-3,3V24h24V3c0-1.66-1.34-3-3-3h0Z" fill="#009ee0"/></g><g id="f" opacity=".4"><path d="M48.5,23.5V3c0-1.38,1.12-2.5,2.5-2.5h18c1.38,0,2.5,1.12,2.5,2.5V23.5h-23Z" fill="#f7f7f7"/><path d="M69,1c1.1,0,2,.9,2,2V23h-22V3c0-1.1,.9-2,2-2h18m0-1h-18c-1.66,0-3,1.34-3,3V24h24V3c0-1.66-1.34-3-3-3h0Z" fill="#ddd"/></g><g id="g"><g clip-path="#h"><g id="i"><path d="M72.5,24.5V3c0-1.38,1.12-2.5,2.5-2.5h18c1.38,0,2.5,1.12,2.5,2.5V24.5h-23Z" fill="#fff"/><path d="M93,1c1.1,0,2,.9,2,2V24h-22V3c0-1.1,.9-2,2-2h18m0-1h-18c-1.66,0-3,1.34-3,3V25h24V3c0-1.66-1.34-3-3-3h0Z" fill="#009ee0"/></g></g></g><g id="j"><path d="M120,24h-24V3c0-1.66,1.34-3,3-3h18c1.66,0,3,1.34,3,3V24Z" fill="#d9f4ff"/></g></g></g></svg>