<?xml version="1.0" encoding="utf-8"?>
<!-- Generator: Adobe Illustrator 15.0.0, SVG Export Plug-In . SVG Version: 6.00 Build 0)  -->
<!DOCTYPE svg PUBLIC "-//W3C//DTD SVG 1.1//EN" "http://www.w3.org/Graphics/SVG/1.1/DTD/svg11.dtd">
<svg version="1.1" id="Calque_2" xmlns="http://www.w3.org/2000/svg" xmlns:xlink="http://www.w3.org/1999/xlink" x="0px" y="0px"
	 width="96px" height="24px" viewBox="0 0 96 24" enable-background="new 0 0 96 24" xml:space="preserve">
<g id="Normal_1_">
	<g>
		<path fill="#F1BE41" d="M5.264,8.703h-2.65c-1.979,0-2.285,1-0.681,2.224l2.131,1.624l2.918,2.224l-1.119,3.611l-0.806,2.602
			c-0.615,1.985,0.195,2.61,1.8,1.387l2.13-1.623l2.918-2.224l2.918,2.224l2.13,1.623c1.604,1.224,2.414,0.599,1.799-1.387
			l-0.806-2.602l-1.118-3.611l2.917-2.224l2.131-1.624c1.604-1.224,1.299-2.224-0.68-2.224h-2.651h-3.597L13.828,5.09l-0.806-2.6
			c-0.615-1.987-1.621-1.987-2.237,0L9.98,5.09L8.86,8.703H5.264z"/>
		<path fill="#F1BE41" d="M5.264,8.703h-2.65c-1.979,0-2.285,1-0.681,2.224l2.131,1.624l2.918,2.224l-1.119,3.611l-0.806,2.602
			c-0.615,1.985,0.195,2.61,1.8,1.387l2.13-1.623l2.918-2.224l2.918,2.224l2.13,1.623c1.604,1.224,2.414,0.599,1.799-1.387
			l-0.806-2.602l-1.118-3.611l2.917-2.224l2.131-1.624c1.604-1.224,1.299-2.224-0.68-2.224h-2.651h-3.597L13.828,5.09l-0.806-2.6
			c-0.615-1.987-1.621-1.987-2.237,0L9.98,5.09L8.86,8.703H5.264z"/>
	</g>
</g>
<g id="clic_1_">
	<path fill="#EEAF00" d="M53.264,8.703h-2.651c-1.978,0-2.284,1-0.68,2.224l2.131,1.624l2.918,2.224l-1.119,3.611l-0.806,2.602
		c-0.615,1.985,0.195,2.61,1.799,1.387l2.131-1.623l2.918-2.224l2.918,2.224l2.129,1.623c1.604,1.224,2.415,0.599,1.8-1.387
		l-0.806-2.602l-1.119-3.611l2.918-2.224l2.131-1.624c1.604-1.224,1.298-2.224-0.681-2.224h-2.65h-3.597L61.828,5.09l-0.806-2.6
		c-0.616-1.987-1.621-1.987-2.237,0l-0.806,2.6L56.86,8.703H53.264z"/>
	<path fill="#F1BE41" d="M53.264,8.703h-2.65c-1.979,0-2.285,1-0.681,2.224l2.131,1.624l2.918,2.224l-1.119,3.611l-0.806,2.602
		c-0.615,1.985,0.195,2.61,1.8,1.387l2.13-1.623l2.918-2.224l2.918,2.224l2.13,1.623c1.604,1.224,2.414,0.599,1.799-1.387
		l-0.806-2.602l-1.118-3.611l2.917-2.224l2.131-1.624c1.604-1.224,1.298-2.224-0.68-2.224h-2.651h-3.597L61.828,5.09l-0.806-2.6
		c-0.615-1.987-1.621-1.987-2.237,0l-0.805,2.6l-1.12,3.612H53.264z"/>
	<g>
		<g>
			<path fill="#0A50A1" d="M59.904,2.21c0.063,0.131,0.138,0.313,0.215,0.561l0.806,2.599l1.119,3.612
				c0.122,0.396,0.488,0.667,0.903,0.667h3.597h2.651c0.276,0,0.48,0.024,0.622,0.053c-0.103,0.12-0.265,0.281-0.516,0.472
				l-2.131,1.624l-2.917,2.224c-0.316,0.241-0.448,0.653-0.33,1.032l1.117,3.611l0.807,2.602c0.09,0.293,0.133,0.511,0.151,0.667
				c-0.12-0.064-0.277-0.163-0.474-0.312l-2.13-1.623l-2.918-2.224c-0.169-0.129-0.371-0.194-0.573-0.194s-0.404,0.064-0.573,0.194
				l-2.918,2.224l-2.131,1.623c-0.196,0.15-0.354,0.249-0.474,0.313c0.019-0.156,0.061-0.374,0.152-0.667l0.805-2.601l1.119-3.611
				c0.118-0.379-0.014-0.792-0.33-1.033l-2.918-2.224l-2.13-1.624c-0.251-0.191-0.414-0.352-0.516-0.472
				c0.142-0.029,0.345-0.053,0.622-0.053h2.65h3.597c0.415,0,0.781-0.27,0.903-0.666l1.121-3.613l0.804-2.599
				C59.766,2.523,59.84,2.341,59.904,2.21 M59.904,1c-0.405,0-0.811,0.497-1.119,1.491l-0.805,2.6l-1.12,3.612h-3.597h-2.65
				c-1.979,0-2.285,1-0.681,2.224l2.131,1.624l2.918,2.224l-1.119,3.611l-0.806,2.602C52.655,22.284,52.861,23,53.5,23
				c0.339,0,0.8-0.202,1.356-0.626l2.13-1.623l2.918-2.224l2.918,2.224l2.13,1.623C65.509,22.798,65.97,23,66.309,23
				c0.639,0,0.844-0.716,0.442-2.013l-0.806-2.602l-1.118-3.611l2.917-2.224l2.131-1.624c1.604-1.224,1.298-2.224-0.68-2.224h-2.651
				h-3.597L61.828,5.09l-0.806-2.6C60.715,1.497,60.31,1,59.904,1L59.904,1z"/>
		</g>
	</g>
</g>
<g id="Grisé_2_">
	<path fill="#999999" d="M77.456,8.703h-2.651c-1.978,0-2.284,1-0.68,2.224l2.131,1.624l2.917,2.224l-1.119,3.611l-0.805,2.602
		c-0.615,1.985,0.194,2.61,1.799,1.387l2.13-1.623l2.919-2.224l2.917,2.224l2.13,1.623c1.604,1.224,2.415,0.599,1.8-1.387
		l-0.806-2.602l-1.119-3.611l2.918-2.224l2.131-1.624c1.604-1.224,1.299-2.224-0.682-2.224h-2.649H87.14L86.02,5.09l-0.805-2.6
		c-0.616-1.987-1.622-1.987-2.237,0l-0.806,2.6l-1.119,3.612H77.456z"/>
</g>
<g id="Vide_5_">
	<g>
		<path fill="#999999" d="M35.906,2.21c0.063,0.131,0.138,0.313,0.215,0.561l0.806,2.599l1.119,3.612l0.206,0.667h0.697h3.597h2.651
			c0.276,0,0.48,0.024,0.622,0.053c-0.103,0.12-0.266,0.281-0.516,0.472l-2.131,1.624l-2.917,2.224l-0.526,0.401l0.196,0.632
			l1.118,3.611l0.806,2.602c0.09,0.293,0.133,0.511,0.151,0.667c-0.12-0.064-0.277-0.163-0.474-0.312l-2.13-1.623l-2.918-2.224
			l-0.573-0.437l-0.573,0.437l-2.918,2.224l-2.131,1.623c-0.196,0.15-0.354,0.249-0.474,0.313c0.019-0.156,0.061-0.374,0.152-0.667
			l0.805-2.601l1.119-3.611l0.196-0.632l-0.526-0.401l-2.918-2.224l-2.13-1.624c-0.251-0.191-0.414-0.352-0.516-0.472
			c0.142-0.029,0.345-0.053,0.622-0.053h2.65h3.597h0.697l0.206-0.666l1.121-3.613l0.804-2.599
			C35.768,2.523,35.842,2.341,35.906,2.21 M35.906,1c-0.405,0-0.811,0.497-1.119,1.491l-0.805,2.6l-1.12,3.612h-3.597h-2.65
			c-1.979,0-2.285,1-0.681,2.224l2.131,1.624l2.918,2.224l-1.119,3.611l-0.806,2.602C28.657,22.284,28.863,23,29.502,23
			c0.339,0,0.8-0.202,1.356-0.626l2.13-1.623l2.918-2.224l2.918,2.224l2.13,1.623C41.511,22.798,41.972,23,42.311,23
			c0.639,0,0.844-0.716,0.442-2.013l-0.805-2.602l-1.119-3.611l2.917-2.224l2.131-1.624c1.604-1.224,1.299-2.224-0.68-2.224h-2.651
			h-3.597L37.83,5.09l-0.806-2.6C36.717,1.497,36.312,1,35.906,1L35.906,1z"/>
	</g>
</g>
</svg>
