<?xml version="1.0" encoding="UTF-8"?><svg xmlns="http://www.w3.org/2000/svg" width="80" height="16" viewBox="0 0 80 16"><g id="a"/><g id="b"><g id="c"><g id="d"><rect id="e" width="16" height="16" fill="none"/><g><line x1="3" y1="3" x2="13" y2="13" fill="none" stroke="#3a3a3a" stroke-miterlimit="10"/><line x1="8" y1="8" x2="13" y2="3" fill="none" stroke="#3a3a3a" stroke-miterlimit="10"/><line x1="3" y1="13" x2="6.9" y2="9.1" fill="none" stroke="#3a3a3a" stroke-miterlimit="10"/></g></g><g id="f"><rect id="g" x="16" width="16" height="16" fill="none"/><g><line x1="19" y1="3" x2="29" y2="13" fill="none" stroke="#fff" stroke-miterlimit="10"/><line x1="24" y1="8" x2="29" y2="3" fill="none" stroke="#fff" stroke-miterlimit="10"/><line x1="19" y1="13" x2="22.9" y2="9.1" fill="none" stroke="#fff" stroke-miterlimit="10"/></g></g><g id="h" opacity=".4"><rect id="i" x="32" width="16" height="16" fill="none"/><g><line x1="35" y1="3" x2="45" y2="13" fill="none" stroke="#3a3a3a" stroke-miterlimit="10"/><line x1="40" y1="8" x2="45" y2="3" fill="none" stroke="#3a3a3a" stroke-miterlimit="10"/><line x1="35" y1="13" x2="38.9" y2="9.1" fill="none" stroke="#3a3a3a" stroke-miterlimit="10"/></g></g><g id="j"><rect id="k" x="48" width="16" height="16" fill="none"/><g><line x1="51" y1="3" x2="61" y2="13" fill="none" stroke="#3a3a3a" stroke-miterlimit="10"/><line x1="56" y1="8" x2="61" y2="3" fill="none" stroke="#3a3a3a" stroke-miterlimit="10"/><line x1="51" y1="13" x2="54.9" y2="9.1" fill="none" stroke="#3a3a3a" stroke-miterlimit="10"/></g></g><g id="l"><rect id="m" x="64" width="16" height="16" fill="none"/><g><line x1="67" y1="3" x2="77" y2="13" fill="none" stroke="#fff" stroke-miterlimit="10"/><line x1="72" y1="8" x2="77" y2="3" fill="none" stroke="#fff" stroke-miterlimit="10"/><line x1="67" y1="13" x2="70.9" y2="9.1" fill="none" stroke="#fff" stroke-miterlimit="10"/></g></g></g></g></svg>