<svg xmlns="http://www.w3.org/2000/svg" xmlns:xlink="http://www.w3.org/1999/xlink" width="16" height="16" viewBox="0 0 16 16"><defs><clipPath id="a"><path d="M8,3h6a2,2,0,0,1,2,2v9a2,2,0,0,1-2,2H6.76l2.78-3Z" fill="none"/></clipPath></defs><g opacity="0.2"><path d="M9,13H2a2,2,0,0,1-2-2V2A2,2,0,0,1,2,0H7Z" fill="#83beec"/></g><path d="M6.14,1,7.83,12H2a1,1,0,0,1-1-1V2A1,1,0,0,1,2,1H6.14M7,0H2A2,2,0,0,0,0,2v9a2,2,0,0,0,2,2H9L7,0Z" fill="#83beec"/><g clip-path="url(#a)"><g opacity="0.2"><rect x="6" y="3" width="10" height="13" fill="#fff"/></g><path d="M14,4a1,1,0,0,1,1,1v9c0,.59-.51,1-1.24,1H7V4h7m0-1H6V16h7.76A2.07,2.07,0,0,0,16,14V5a2,2,0,0,0-2-2Z" fill="#777"/></g><path d="M5,3.4A.5.5,0,0,0,4.5,3h-1A.5.5,0,0,0,3,3.4l-1,5A.5.5,0,0,0,2.4,9,.49.49,0,0,0,3,8.6L3.31,7H4.69L5,8.6a.5.5,0,0,0,1-.2ZM3.51,6l.4-2h.18l.4,2Z" fill="#777"/><path d="M13.5,7H12V6.5a.5.5,0,0,0-1,0V7H9.5a.5.5,0,0,0,0,1h.13a6.56,6.56,0,0,0,1.17,2.19c-.36.34-.72.61-1.11.92a.5.5,0,0,0,.62.78c.43-.33.79-.62,1.19-1,.4.36.76.65,1.19,1a.5.5,0,1,0,.62-.78c-.39-.31-.75-.58-1.11-.92A6.56,6.56,0,0,0,13.37,8h.13a.5.5,0,0,0,0-1Zm-2,2.45A5.29,5.29,0,0,1,10.68,8h1.64A5.29,5.29,0,0,1,11.5,9.45Z" fill="#83beec"/><polygon points="9 13 6 13 6 16 9 13 9 13" fill="#83beec"/><g opacity="0.5"><polygon points="9 13 6 13 6 16 9 13 9 13" fill="#777"/></g></svg>