<svg xmlns="http://www.w3.org/2000/svg" width="16" height="16" viewBox="0 0 16 16"><rect width="16" height="16" fill="none"/><g opacity="0.2"><rect width="7" height="7" fill="#83beec"/><rect x="9" width="7" height="7" fill="#83beec"/><rect y="9" width="7" height="7" fill="#83beec"/><rect x="9" y="9" width="7" height="7" fill="#83beec"/></g><path d="M6,1V6H1V1H6M7,0H0V7H7V0Z" fill="#83beec"/><path d="M15,1V6H10V1h5m1-1H9V7h7V0Z" fill="#83beec"/><path d="M6,10v5H1V10H6M7,9H0v7H7V9Z" fill="#83beec"/><path d="M15,10v5H10V10h5m1-1H9v7h7V9Z" fill="#83beec"/></svg>