<svg xmlns="http://www.w3.org/2000/svg" viewBox="0 0 16 16"><g id="Calque_2" data-name="Calque 2"><g id="Draw"><g id="Importer_Download_16_1"><rect id="Masque" width="16" height="16" fill="none"/><g opacity="0.2"><rect x="5" y="1" width="6" height="3" fill="#e7c146"/><rect x="5" y="5" width="6" height="4" fill="#e7c146"/><polygon points="14 8 2 8 8 14 14 8" fill="#e7c146"/></g><path d="M10,2V3H6V2h4m1-1H5V4h6V1Z" fill="#e7c146"/><path d="M10,6V8H6V6h4m1-1H5V9h6V5Z" fill="#e7c146"/><path d="M11.59,9,8,12.59,4.41,9h7.18M14,8H2l6,6,6-6Z" fill="#e7c146"/><polyline points="1.5 12 1.5 15.5 14.5 15.5 14.5 12" fill="none" stroke="#777" stroke-miterlimit="10"/></g></g></g></svg>