<?xml version="1.0" encoding="UTF-8"?><svg xmlns="http://www.w3.org/2000/svg" width="360" height="24" viewBox="0 0 360 24"><g id="a"/><g id="b"><g id="c"><g id="d"><rect width="72" height="24" rx="3" ry="3" fill="#ebfdc1"/><g id="e"><polyline points="59 8 63 12 67 8" fill="none" stroke="#838383" stroke-miterlimit="10"/><rect x="53" width="19" height="24" fill="none"/></g></g><g id="f"><g><rect x="72.5" y=".5" width="71" height="23" rx="2.5" ry="2.5" fill="#b2e9ff"/><path d="M141,1c1.1,0,2,.9,2,2V21c0,1.1-.9,2-2,2H75c-1.1,0-2-.9-2-2V3c0-1.1,.9-2,2-2h66m0-1H75c-1.66,0-3,1.34-3,3V21c0,1.66,1.34,3,3,3h66c1.66,0,3-1.34,3-3V3c0-1.66-1.34-3-3-3h0Z" fill="#009ee0"/></g><g id="g"><polyline points="131 8 135 12 139 8" fill="none" stroke="#838383" stroke-miterlimit="10"/><rect x="125" width="19" height="24" fill="none"/></g></g><g id="h"><rect x="144" width="72" height="24" rx="3" ry="3" fill="#ebfdc1" opacity=".4"/><g id="i" opacity=".4"><polyline points="203 8 207 12 211 8" fill="none" stroke="#838383" stroke-miterlimit="10"/><rect x="197" width="19" height="24" fill="none"/></g></g><g id="j"><g><rect x="216.5" y=".5" width="71" height="23" rx="2.5" ry="2.5" fill="#ebfdc1"/><path d="M285,1c1.1,0,2,.9,2,2V21c0,1.1-.9,2-2,2h-66c-1.1,0-2-.9-2-2V3c0-1.1,.9-2,2-2h66m0-1h-66c-1.66,0-3,1.34-3,3V21c0,1.66,1.34,3,3,3h66c1.66,0,3-1.34,3-3V3c0-1.66-1.34-3-3-3h0Z" fill="#009ee0"/></g><g id="k"><polyline points="275 8 279 12 283 8" fill="none" stroke="#838383" stroke-miterlimit="10"/><rect x="269" width="19" height="24" fill="none"/></g></g><g id="l"><rect x="288" width="72" height="24" rx="3" ry="3" fill="#d9f4ff"/><g id="m"><polyline points="347 8 351 12 355 8" fill="none" stroke="#838383" stroke-miterlimit="10"/><rect x="341" width="19" height="24" fill="none"/></g></g></g></g></svg>