<svg xmlns="http://www.w3.org/2000/svg" xmlns:xlink="http://www.w3.org/1999/xlink" width="16" height="16" viewBox="0 0 16 16"><defs><clipPath id="a" transform="translate(-1 -1)"><path d="M2.7.8l1.5,1L4.5,3l4,4L9,6.8l.2.2h.9l.6.4,6.7,6.7V.8ZM.8.8ZM7,9.2V8.5l-4-4L1.8,4.2.8,2.6V17.4H14.1L7.4,10.7C7.1,10.4,6.7,9.7,7,9.2Zm10.4,8.2V16.2l-1.2,1.2Z" fill="none"/></clipPath></defs><g clip-path="url(#a)"><path d="M17,4.4c0-.4-.3-.5-.6-.2L15,5.7a.8.8,0,0,1-1.1,0L12.3,4.1a.9.9,0,0,1,0-1l1.5-1.5c.3-.3.2-.6-.2-.6a5.4,5.4,0,0,0-3.4,1,3.9,3.9,0,0,0-.9,4.1l-2,2L5.1,10.3,1.5,13.9a1.6,1.6,0,0,0,0,2.2l.4.5a1.8,1.8,0,0,0,2.2,0l3.6-3.7,1.1-1.1,1.1-1.1,2-2A3.9,3.9,0,0,0,16,7.8c1.1-1.1,1-3.4,1-3.4M3.9,15.8a1.2,1.2,0,0,1-1.7,0,1.2,1.2,0,0,1,0-1.7,1.2,1.2,0,0,1,1.7,0,1.2,1.2,0,0,1,0,1.7" transform="translate(-1 -1)" fill="#777"/></g><path d="M2.4,3.8l1.1.3L7.7,8.3l-.2.5.3.3-.3.3c-.1.1.1.6.3.7l.7.8h0l5.4,5.4h0l.4.4c.2.2.7.4.8.2L17,15.1c.1-.1-.1-.6-.3-.8l-.4-.4h0L10.4,8h0l-.3-.3c-.1-.1-.6-.3-.7-.2l-.3.3-.3-.3H8.3L4.1,3.4l-.3-1L1.8,1,1,1.8Z" transform="translate(-1 -1)" fill="#83beec"/></svg>