<svg xmlns="http://www.w3.org/2000/svg" viewBox="0 0 48 48"><g id="Calque_2" data-name="Calque 2"><g id="Draw"><g id="Information-Informer-Commenter-Bulle-A-Propos_48_1"><rect id="Masque" width="48" height="48" fill="none"/><path d="M24.5,1.5c-13.25,0-24,8.94-24,20,0,6.36,3.57,12,9.14,15.69l-1,9.33,7.43-6.3a28.33,28.33,0,0,0,8.39,1.26c13.25,0,24-9,24-20S37.75,1.5,24.5,1.5Z" transform="translate(-0.5)" fill="#83beec" opacity="0.2"/><path d="M24.5,2c12.68,0,23,8.71,23,19.42s-10.32,19.42-23,19.42a26.75,26.75,0,0,1-8.09-1.23l-.54-.17-.42.36L9.93,44.59l.71-7,.06-.6-.5-.33c-5.53-3.71-8.7-9.26-8.7-15.21C1.5,10.71,11.82,2,24.5,2m0-1C11.25,1,.5,10.14.5,21.42c0,6.51,3.57,12.3,9.14,16L8.68,47l7.43-6.44a27.7,27.7,0,0,0,8.39,1.28c13.25,0,24-9.14,24-20.42S37.75,1,24.5,1Z" transform="translate(-0.5)" fill="#83beec"/><path d="M24.19,33a.51.51,0,0,0,.39.21,1.07,1.07,0,0,0,.71-.32A12.24,12.24,0,0,0,27.58,30l.74.42Q25.11,36,21.5,36a3,3,0,0,1-2.18-.78,2.56,2.56,0,0,1-.82-2,7.07,7.07,0,0,1,.37-2l2.95-10.13A8.6,8.6,0,0,0,22.24,19a1.1,1.1,0,0,0-.41-.84,1.55,1.55,0,0,0-1.09-.37c-.23,0-.49,0-.77,0l.27-.84,7.18-1.16h1.26L24.34,30.82A8.4,8.4,0,0,0,24,32.53.62.62,0,0,0,24.19,33Zm5.39-21.62a3.07,3.07,0,0,1-2.21.91,3.11,3.11,0,0,1-3.08-3.11,3.07,3.07,0,0,1,.89-2.21A3,3,0,0,1,27.37,6,3.12,3.12,0,0,1,30.5,9.13,3,3,0,0,1,29.58,11.33Z" transform="translate(-0.5)" fill="#83beec"/></g></g></g></svg>