<?xml version="1.0" encoding="utf-8"?>
<!-- Generator: Adobe Illustrator 26.5.0, SVG Export Plug-In . SVG Version: 6.00 Build 0)  -->
<svg version="1.1" id="Calque_1" xmlns="http://www.w3.org/2000/svg" xmlns:xlink="http://www.w3.org/1999/xlink" x="0px" y="0px"
	 viewBox="0 0 237.3 62" style="enable-background:new 0 0 237.3 62;" xml:space="preserve">
<style type="text/css">
	.st0{opacity:0.7;}
	.st1{fill:#231F20;}
	.st2{fill:#FFC10E;}
	.st3{fill:#F48120;}
	.st4{fill:#5476B9;}
	.st5{opacity:0.6;fill:#717573;enable-background:new    ;}
</style>
<g id="Black_3_" class="st0">
	<g>
		<g>
			<path class="st1" d="M5.2,47.9H0V14.3c0,0,0.3,0,2.5,0s2.7,0,2.7,0H13c3.3,0,5.9,1,8,2.9c2,1.9,2.9,4.3,2.9,7.3
				c0,3-1,5.4-2.9,7.3c-2,1.9-4.7,2.9-8,2.9h-1.5v-4.6h1.2c1.8,0,3.3-0.5,4.4-1.5c1.1-1,1.6-2.4,1.6-4.1c0-1.8-0.5-3.1-1.6-4.2
				c-1.1-1-2.5-1.5-4.4-1.5H5.2V47.9z"/>
			<path class="st1" d="M82,45.6c-2.2,1.7-5.2,2.6-8.8,2.6c-5.1,0-9.1-1.5-12.1-4.4l3.5-3.4c2.2,2.1,5.1,3.2,8.7,3.2
				c4.7,0,7.1-1.7,7.1-5.2c0-1.5-0.4-2.7-1.3-3.5c-0.8-0.7-2-1.2-3.7-1.4l-4-0.6c-2.8-0.4-4.9-1.3-6.5-2.7c-1.7-1.5-2.5-3.7-2.5-6.4
				c0-3,1-5.3,3.1-7.1c2-1.8,4.8-2.7,8.3-2.7c4.3,0,7.8,1.3,10.6,3.8L80.9,21c-1.9-1.7-4.3-2.6-7.4-2.6c-2,0-3.5,0.5-4.6,1.5
				c-1.1,0.9-1.6,2.2-1.6,3.7c0,1.3,0.4,2.4,1.3,3.1c0.9,0.8,2.2,1.3,3.8,1.6l3.9,0.6c2.8,0.4,5,1.3,6.4,2.5
				c1.9,1.6,2.8,3.9,2.8,6.9C85.4,41.4,84.3,43.8,82,45.6z"/>
			<path class="st1" d="M104.3,14c2.7,0.4,5,1.5,6.9,3.4c1.5,1.5,2.5,3.3,2.9,5.5c0.3,1.4,0.4,4,0.4,7.9c0,3.9-0.1,6.5-0.4,7.9
				c-0.4,2.2-1.4,4-2.9,5.5c-2.4,2.4-5.4,3.6-8.9,3.6c-3.6,0-6.5-1.2-9-3.6c-1.5-1.5-2.5-3.3-2.9-5.5c-0.3-1.4-0.4-4-0.4-7.9
				c0-3.9,0.1-6.6,0.4-7.9c0.4-2.2,1.4-4,2.9-5.5c2-1.9,4.3-3.1,7-3.4v4.7c-1.2,0.3-2.3,0.9-3.1,1.8c-0.8,0.9-1.4,2-1.6,3.4
				c-0.3,1.3-0.4,3.7-0.4,7.1s0.1,5.7,0.4,7c0.3,1.4,0.8,2.5,1.6,3.4c1.3,1.4,3,2.1,5,2.1c2.1,0,3.8-0.7,5.1-2.1
				c0.8-0.9,1.4-2,1.6-3.4c0.3-1.3,0.4-3.6,0.4-7s-0.1-5.8-0.4-7.1c-0.3-1.3-0.8-2.4-1.6-3.4c-0.8-0.9-1.8-1.4-3.1-1.8L104.3,14
				L104.3,14z"/>
			<path class="st1" d="M160.6,18.8v29.1h-5.2V18.8H146v-4.6h24v4.6H160.6z"/>
			<path class="st1" d="M52.4,37.8c-0.6,3.3-2,5.8-4.2,7.7c-2.1,1.8-4.8,2.6-8,2.6c-3.6,0-6.5-1.2-9-3.6c-1.5-1.5-2.5-3.4-2.9-5.6
				c-0.3-1.4-0.4-4-0.4-7.9s0.1-6.6,0.4-7.9c0.4-2.2,1.4-4.1,2.9-5.6c2.4-2.4,5.4-3.6,9-3.6c3.2,0,5.9,0.9,8,2.6
				c2.2,1.8,3.6,4.4,4.2,7.7h-5.3c-0.9-3.8-3.2-5.8-6.9-5.8c-2.1,0-3.8,0.7-5,2c-1.4,1.5-2.1,5-2.1,10.5s0.7,9,2.1,10.5
				c1.3,1.4,3,2,5,2c3.7,0,6-1.9,7-5.8L52.4,37.8L52.4,37.8z"/>
		</g>
		<path class="st1" d="M132.4,33.7h8v-4.6h-8V33.7z M121,14.2v33.6h5.2V33.7l0,0v-4.6l0,0V18.8h16.7v-4.6
			C142.8,14.2,121,14.2,121,14.2z"/>
	</g>
	<g>
		<path class="st1" d="M170.1,37.8c2.8,0,5,2.2,5,5.1c0,2.9-2.2,5.1-5,5.1c-2.8,0-5-2.2-5-5.1C165,40,167.3,37.8,170.1,37.8
			L170.1,37.8z M170,38.5c-2.2,0-4,1.9-4,4.3c0,2.4,1.8,4.3,4.1,4.3c2.2,0,4-1.9,4-4.3S172.3,38.5,170,38.5L170,38.5z M169.1,45.8
			h-0.9v-5.6c0.5-0.1,0.9-0.1,1.6-0.1c0.9,0,1.4,0.2,1.8,0.4c0.3,0.2,0.5,0.6,0.5,1.2c0,0.7-0.5,1.2-1.1,1.4v0
			c0.5,0.1,0.8,0.5,0.9,1.4c0.1,0.9,0.3,1.2,0.4,1.4h-0.9c-0.1-0.2-0.3-0.7-0.4-1.4c-0.1-0.7-0.5-1-1.2-1h-0.6V45.8z M169.1,42.6
			h0.7c0.7,0,1.4-0.3,1.4-1c0-0.5-0.4-1-1.4-1c-0.3,0-0.5,0-0.7,0V42.6z"/>
	</g>
	<g>
		<g>
			<path class="st2" d="M181.3,32.4c0.1,1.3,0.3,3.5,1.2,5.1c2.2,3.9,7,5.4,11,3.6l5.2-3V17.8c0.5-4.3,4.2-7.7,8.7-7.7
				c1.8,0,3.8,0.9,5,1.5L195,1.6c-1.4-1-3.2-1.6-5-1.6c-1.5,0-2.9,0.4-4.2,1.1c-2.7,1.5-4.6,4.4-4.6,7.7L181.3,32.4z"/>
		</g>
		<g>
			<path class="st3" d="M214.9,49c1.1-0.7,2.9-2,3.8-3.6c2.2-3.9,1.2-8.8-2.4-11.4l-5.2-3l-17.6,10.1c-4,1.7-8.8,0.2-11-3.6
				c-0.9-1.6-1.1-3.8-1.2-5.1l0,20c-0.2,1.7,0.2,3.5,1.1,5.2c0.8,1.3,1.8,2.4,3,3.1c2.6,1.6,6.1,1.8,8.9,0.1L214.9,49z"/>
		</g>
		<g>
			<path class="st4" d="M212.4,11.6c-1.2-0.6-3.2-1.5-5-1.5c-4.5,0-8.2,3.4-8.7,7.7v6L216.3,34c3.5,2.6,4.6,7.5,2.3,11.4
				c-0.9,1.6-2.7,2.9-3.8,3.6l17.3-10c1.6-0.7,3-1.9,3.9-3.6c0.8-1.3,1.1-2.7,1.2-4.2c0.1-3.1-1.5-6.1-4.4-7.8L212.4,11.6z"/>
		</g>
		<path class="st5" d="M207.4,10.1c-4.5,0-8.2,3.4-8.7,7.7v6l3.9,2.2V20c0.5-4.3,2.2-8.8,6.7-8.8c1.6,0,3.3,0.7,4.5,1.2l-1.4-0.8
			C211.2,11,209.2,10.1,207.4,10.1z"/>
		<path class="st5" d="M182.5,37.5c2.2,3.9,7,5.4,11,3.6l5.2-3l0-4.5l-5.3,3c-4,1.7-8.8,2.5-11-1.4c-0.8-1.4-1.1-3.2-1.2-4.5v1.6
			C181.4,33.8,181.6,35.9,182.5,37.5z"/>
		<path class="st5" d="M218.7,45.4c2.2-3.9,1.2-8.8-2.4-11.4l-5.2-3l-3.8,2.2l5.3,3c3.5,2.6,6.6,6.3,4.3,10.2
			c-0.8,1.4-2.2,2.5-3.3,3.3l1.4-0.8C216,48.2,217.8,46.9,218.7,45.4z"/>
	</g>
</g>
</svg>
